<svg width="41" height="33" viewBox="0 0 41 33" fill="none" xmlns="http://www.w3.org/2000/svg">
<path d="M38.9004 12.0879H34.8574V2.6543C34.8568 2.11836 34.6436 1.60455 34.2647 1.22558C33.8857 0.846614 33.3719 0.633437 32.8359 0.632812H2.51367C1.97773 0.633437 1.46392 0.846614 1.08496 1.22558C0.705989 1.60455 0.492812 2.11836 0.492188 2.6543V23.3745C0.492812 23.9105 0.705989 24.4243 1.08496 24.8032C1.46392 25.1822 1.97773 25.3954 2.51367 25.396H17.001V29.6074H11.9473V32.3027H24.75V29.6074H19.6963V25.396H27.4453V30.2812C27.4459 30.8172 27.6591 31.331 28.0381 31.71C28.417 32.089 28.9309 32.3021 29.4668 32.3027H38.9004C39.4363 32.3021 39.9502 32.089 40.3291 31.71C40.7081 31.331 40.9213 30.8172 40.9219 30.2812V14.1094C40.9213 13.5734 40.7081 13.0596 40.3291 12.6806C39.9502 12.3017 39.4363 12.0885 38.9004 12.0879ZM27.4453 14.1094V22.7007H3.1875V3.32812H32.1621V12.0879H29.4668C28.9309 12.0885 28.417 12.3017 28.0381 12.6806C27.6591 13.0596 27.4459 13.5734 27.4453 14.1094ZM38.2266 29.6074H30.1406V14.7832H38.2266V29.6074Z" fill="#C4BD47"/>
</svg>
