<svg width="33" height="29" viewBox="0 0 33 29" fill="none" xmlns="http://www.w3.org/2000/svg">
<path d="M32.3652 5.25505C32.2157 5.1041 32.0376 4.9844 31.8413 4.90291C31.6451 4.82142 31.4346 4.77976 31.2221 4.78035H30.0807V2.09048C30.0803 1.66259 29.9101 1.25236 29.6075 0.9498C29.3049 0.647235 28.8947 0.477043 28.4668 0.476562H5.24162C3.982 0.47658 2.77397 0.976971 1.88328 1.86766C0.992596 2.75835 0.492205 3.96637 0.492188 5.226V23.7018C0.492205 24.9614 0.992596 26.1694 1.88328 27.0601C2.77397 27.9508 3.982 28.4512 5.24162 28.4512H31.1585C31.5854 28.4504 31.9946 28.2808 32.297 27.9794C32.5993 27.678 32.7702 27.2693 32.7724 26.8425L32.8359 6.39979C32.8372 6.18731 32.7963 5.97668 32.7155 5.78016C32.6347 5.58363 32.5157 5.40514 32.3652 5.25505ZM30.6223 26.2993H5.24162C4.55271 26.2993 3.89202 26.0256 3.40488 25.5385C2.91775 25.0514 2.64408 24.3907 2.64408 23.7018V5.226C2.64408 4.53709 2.91775 3.87639 3.40488 3.38926C3.89202 2.90213 4.55271 2.62846 5.24162 2.62846H27.9288V4.78035H5.33395V6.93225H30.6824L30.6223 26.2993Z" fill="#C4BD47"/>
</svg>
