<svg width="37" height="37" viewBox="0 0 37 37" fill="none" xmlns="http://www.w3.org/2000/svg">
<path d="M33.6133 23.2203L28.7968 20.0689L30.6512 16.6691C31.0985 15.8202 31.3328 14.8753 31.3341 13.9158V8.52622C31.3378 7.01078 30.8989 5.52725 30.0712 4.25778C29.2436 2.98831 28.0632 1.98818 26.6751 1.38019C25.2869 0.772202 23.7515 0.582828 22.2572 0.835322C20.763 1.08781 19.375 1.77118 18.2637 2.80151L19.8916 4.55889C20.6617 3.84692 21.6227 3.37512 22.6569 3.20132C23.6912 3.02752 24.7537 3.15929 25.7141 3.58047C26.6745 4.00164 27.4912 4.69392 28.064 5.57243C28.6368 6.45093 28.9408 7.47748 28.9387 8.52622V13.9158C28.9385 14.4745 28.8046 15.0251 28.5483 15.5216L25.6353 20.8624L32.3017 25.2245C32.7418 25.5125 33.1029 25.9059 33.3522 26.3689C33.6016 26.832 33.7312 27.35 33.7294 27.8759V31.8811H28.3399V34.2764H36.1248V27.8759C36.1272 26.952 35.8987 26.0423 35.4601 25.2292C35.0215 24.4162 34.3866 23.7256 33.6133 23.2203Z" fill="#C4BD47"/>
<path d="M22.8343 25.6157L18.0179 22.4643L19.8723 19.0645C20.3195 18.2156 20.5539 17.2707 20.5551 16.3112V10.9216C20.5535 8.85579 19.7326 6.87492 18.2724 5.41359C16.8122 3.95226 14.832 3.1298 12.7662 3.12665C8.4757 3.12665 4.9852 6.62351 4.9852 10.9216V16.3112C4.98063 17.2703 5.21239 18.2158 5.66002 19.064L7.52451 22.4822L2.7361 25.6157C1.9636 26.1202 1.32931 26.8096 0.890783 27.6214C0.452259 28.4332 0.223384 29.3416 0.224928 30.2642L0.1875 36.6718H25.3458V30.2713C25.3482 29.3474 25.1198 28.4377 24.6811 27.6246C24.2425 26.8116 23.6077 26.121 22.8343 25.6157ZM22.9505 34.2765H2.59679L2.62 30.2713C2.61819 29.7453 2.74784 29.2273 2.99719 28.7642C3.24653 28.3012 3.60764 27.9078 4.04771 27.6198L10.686 23.276L7.76285 17.917C7.50944 17.4198 7.37838 16.8693 7.38057 16.3112V10.9216C7.38057 9.49222 7.94839 8.12136 8.95914 7.11062C9.96988 6.09988 11.3407 5.53205 12.7701 5.53205C14.1995 5.53205 15.5704 6.09988 16.5812 7.11062C17.5919 8.12136 18.1597 9.49222 18.1597 10.9216V16.3112C18.1595 16.8699 18.0256 17.4205 17.7694 17.917L14.8563 23.2578L21.5227 27.6199C21.9628 27.9079 22.3239 28.3013 22.5732 28.7643C22.8226 29.2274 22.9523 29.7454 22.9505 30.2713V34.2765Z" fill="#C4BD47"/>
</svg>
