<svg width="37" height="40" viewBox="0 0 37 40" fill="none" xmlns="http://www.w3.org/2000/svg">
<path d="M18.258 13.0228C16.8572 13.0228 15.4878 13.4382 14.3231 14.2164C13.1583 14.9947 12.2505 16.1008 11.7144 17.395C11.1784 18.6892 11.0381 20.1133 11.3114 21.4872C11.5847 22.8611 12.2592 24.1231 13.2498 25.1137C14.2403 26.1042 15.5023 26.7787 16.8762 27.052C18.2501 27.3253 19.6742 27.1851 20.9684 26.649C22.2626 26.1129 23.3688 25.2051 24.147 24.0404C24.9253 22.8756 25.3407 21.5063 25.3407 20.1054C25.3385 18.2277 24.5916 16.4274 23.2638 15.0996C21.936 13.7718 20.1358 13.0249 18.258 13.0228ZM18.258 24.6126C17.3665 24.6126 16.4951 24.3483 15.7539 23.853C15.0127 23.3578 14.435 22.6538 14.0939 21.8303C13.7528 21.0067 13.6635 20.1004 13.8374 19.2261C14.0113 18.3518 14.4406 17.5487 15.0709 16.9184C15.7013 16.2881 16.5044 15.8588 17.3787 15.6849C18.253 15.511 19.1592 15.6002 19.9828 15.9414C20.8064 16.2825 21.5103 16.8602 22.0055 17.6014C22.5008 18.3426 22.7651 19.214 22.7651 20.1054C22.7638 21.3004 22.2885 22.446 21.4435 23.291C20.5986 24.136 19.4529 24.6113 18.258 24.6126Z" fill="#C4BD47"/>
<path d="M35.9282 25.4432L33.3712 23.3382C33.8245 21.2069 33.8245 19.004 33.3712 16.8727L35.9282 14.7678C36.2231 14.5262 36.4224 14.1874 36.4903 13.8123C36.5582 13.4371 36.4904 13.05 36.2989 12.7203L33.6741 8.17429C33.4844 7.84352 33.1831 7.59114 32.8241 7.46238C32.4652 7.33363 32.0721 7.33692 31.7154 7.47166L28.6118 8.63442C26.995 7.17368 25.0877 6.07129 23.0149 5.39957L22.4703 2.13421C22.4087 1.75789 22.215 1.41583 21.924 1.16934C21.6331 0.922841 21.2638 0.788031 20.8825 0.789068H15.6331C15.2518 0.788044 14.8826 0.922849 14.5916 1.16932C14.3007 1.4158 14.107 1.75783 14.0453 2.13413L13.5011 5.39957C11.4283 6.07127 9.5209 7.17367 7.90414 8.63442L4.80023 7.4715C4.44352 7.33684 4.05052 7.33361 3.69164 7.46238C3.33275 7.59114 3.03145 7.84349 2.84171 8.17421L0.217016 12.7206C0.0255915 13.0503 -0.0421983 13.4374 0.0257878 13.8125C0.0937739 14.1877 0.293095 14.5264 0.588052 14.7679L3.14482 16.8727C2.69153 19.004 2.69153 21.2069 3.14482 23.3382L0.58781 25.4432C0.2929 25.6848 0.0936339 26.0235 0.0256934 26.3987C-0.0422472 26.7738 0.0255753 27.1609 0.217016 27.4906L2.84179 32.0366C3.03155 32.3674 3.3329 32.6198 3.69183 32.7485C4.05077 32.8773 4.44382 32.874 4.80056 32.7393L7.90422 31.5765C9.52098 33.0373 11.4283 34.1397 13.5011 34.8114L14.0454 38.0767C14.107 38.453 14.3007 38.7951 14.5916 39.0416C14.8826 39.288 15.2518 39.4229 15.6331 39.4219H20.8825C21.2638 39.4229 21.6331 39.2881 21.924 39.0416C22.215 38.7952 22.4086 38.4531 22.4703 38.0768L23.0146 34.8114C25.0874 34.1396 26.9948 33.0373 28.6116 31.5765L31.7154 32.7394C32.0721 32.8741 32.4651 32.8773 32.824 32.7485C33.1829 32.6198 33.4842 32.3674 33.6739 32.0367L36.2984 27.4904C36.4899 27.1608 36.5578 26.7738 36.49 26.3986C36.4222 26.0235 36.223 25.6848 35.9282 25.4432ZM31.8528 30.0405L27.9807 28.5898L27.3944 29.1801C25.7812 30.8061 23.7634 31.9722 21.5492 32.5583L20.7443 32.7704L20.0646 36.8463H16.4516L15.7722 32.7704L14.9673 32.5583C12.7531 31.9722 10.7353 30.8061 9.12212 29.1801L8.53578 28.5898L4.66309 30.0405L2.85692 26.9114L6.04646 24.2857L5.82915 23.483C5.23154 21.271 5.23154 18.94 5.82915 16.7279L6.04646 15.9253L2.85692 13.2996L4.66349 10.1705L8.53554 11.6211L9.12188 11.0309C10.7351 9.40487 12.7529 8.23871 14.9671 7.65267L15.7719 7.44051L16.4513 3.36459H20.0646L20.7441 7.44051L21.5489 7.65267C23.7632 8.23871 25.7809 9.40487 27.3941 11.0309L27.9805 11.6211L31.8525 10.1705L33.6592 13.2995L30.4696 15.9253L30.6869 16.7279C31.2846 18.94 31.2846 21.271 30.6869 23.483L30.4696 24.2857L33.6592 26.9114L31.8528 30.0405Z" fill="#C4BD47"/>
</svg>
