<svg width="44" height="44" viewBox="0 0 44 44" fill="none" xmlns="http://www.w3.org/2000/svg">
<path d="M38.9853 34.673C41.7249 32.2313 43.2762 28.9768 43.2762 25.5995C43.2762 22.0102 41.5959 18.6535 38.5448 16.147C35.5753 13.7084 31.6448 12.3652 27.4767 12.3652C23.3087 12.3652 19.3781 13.7084 16.4091 16.1472C13.358 18.6535 11.6777 22.0102 11.6777 25.5995C11.6777 29.1887 13.358 32.5455 16.4091 35.052C19.3781 37.4907 23.3087 38.8338 27.4767 38.8338C28.0321 38.8338 28.5909 38.8093 29.145 38.7606L30.0917 39.5812C33.3531 42.4073 37.5239 43.9631 41.8394 43.9632H43.2757V40.906L42.8551 40.4855C41.1956 38.8211 39.8806 36.846 38.9853 34.673ZM31.9731 37.4102L30.0735 35.7638L29.4401 35.8415C28.7887 35.9211 28.133 35.9611 27.4767 35.9611C20.3492 35.9611 14.5503 31.3129 14.5503 25.5995C14.5503 19.8861 20.3492 15.2378 27.4767 15.2378C34.6042 15.2378 40.4032 19.886 40.4032 25.5995C40.4032 28.446 38.9831 31.1035 36.4044 33.0823L35.5772 33.717L35.9589 34.7974C36.7411 37.0038 37.8908 39.0621 39.3594 40.8851C36.6245 40.4286 34.0685 39.2261 31.9731 37.4102Z" fill="#C4BD47"/>
<path d="M4.15385 27.9376C5.49832 26.2357 6.55392 24.3245 7.27846 22.2802L7.65728 21.2052L6.8308 20.571C4.39919 18.7051 3.06004 16.2007 3.06004 13.5193C3.06004 8.13113 8.53664 3.74754 15.2684 3.74754C20.2206 3.74754 24.4934 6.12009 26.4064 9.51956C26.7616 9.50233 27.1183 9.49263 27.4767 9.49263C28.1964 9.49263 28.9096 9.52755 29.6162 9.59739C28.8769 7.68221 27.5931 5.93391 25.828 4.48417C22.9948 2.15678 19.245 0.875 15.2684 0.875C11.2917 0.875 7.54193 2.15678 4.70852 4.48417C1.79307 6.87907 0.1875 10.0878 0.1875 13.5193C0.1875 16.733 1.65537 19.8295 4.24946 22.1588C3.4029 24.196 2.16592 26.0479 0.608238 27.6102L0.1875 28.0309V31.0367H1.62377C4.27972 31.0364 6.89913 30.4179 9.2747 29.2301C9.01421 28.2428 8.86158 27.2302 8.81949 26.2099C7.37764 27.055 5.79835 27.6398 4.15385 27.9376Z" fill="#C4BD47"/>
</svg>
