<svg width="31" height="36" viewBox="0 0 31 36" fill="none" xmlns="http://www.w3.org/2000/svg">
<path d="M29.9231 16.7858L3.11556 0.82907C2.80264 0.642822 2.44597 0.542794 2.08184 0.539165C1.7177 0.535536 1.35911 0.628435 1.04254 0.80841C0.725972 0.988384 0.462732 1.24901 0.279606 1.56377C0.0964804 1.87852 5.97625e-06 2.23617 0 2.60032V33.8755C0.000425096 34.2364 0.0955242 34.5908 0.2758 34.9035C0.456076 35.2161 0.715219 35.476 1.02735 35.6571C1.33948 35.8383 1.69368 35.9344 2.05456 35.9358C2.41545 35.9372 2.77039 35.8439 3.08395 35.6653L29.8913 20.347C30.2041 20.1683 30.4646 19.9106 30.6469 19.5998C30.8291 19.289 30.9266 18.9359 30.9298 18.5756C30.933 18.2153 30.8417 17.8605 30.665 17.5465C30.4883 17.2325 30.2325 16.9703 29.9229 16.7861L29.9231 16.7858ZM2.74839 32.6915V3.80893L27.5049 18.5449L2.74839 32.6915Z" fill="#C4BD47"/>
</svg>
