<svg width="29" height="29" viewBox="0 0 29 29" fill="none" xmlns="http://www.w3.org/2000/svg">
<path fill-rule="evenodd" clip-rule="evenodd" d="M14.1142 3.624C12.1472 3.62364 10.2145 4.13919 8.50904 5.1192C6.80357 6.09921 5.38497 7.50939 4.39483 9.20899C3.40469 10.9086 2.87764 12.8382 2.86628 14.8051C2.85493 16.7721 3.35968 18.7076 4.33014 20.4185C4.98608 19.566 5.82928 18.8758 6.79454 18.4012C7.75981 17.9266 8.82129 17.6804 9.89692 17.6815H18.3314C19.4071 17.6804 20.4685 17.9266 21.4338 18.4012C22.3991 18.8758 23.2423 19.566 23.8982 20.4185C24.8687 18.7076 25.3734 16.7721 25.3621 14.8051C25.3507 12.8382 24.8237 10.9086 23.8335 9.20899C22.8434 7.50939 21.4248 6.09921 19.7193 5.1192C18.0138 4.13919 16.0812 3.62364 14.1142 3.624ZM25.2801 23.4114C25.4562 23.1818 25.6249 22.9465 25.7861 22.7057C27.3446 20.39 28.1753 17.6613 28.1717 14.87C28.1717 7.10605 21.8781 0.8125 14.1142 0.8125C6.35021 0.8125 0.056655 7.10605 0.056655 14.87C0.0522251 17.9581 1.06885 20.961 2.94829 23.4114L2.94126 23.4367L3.4403 24.0172C4.75873 25.5587 6.39573 26.7959 8.23846 27.6436C10.0812 28.4913 12.0858 28.9293 14.1142 28.9275C14.4178 28.9275 14.7196 28.9182 15.0195 28.8994C17.556 28.7395 20.001 27.8914 22.0918 26.4464C23.0917 25.7566 23.998 24.9401 24.788 24.0172L25.2871 23.4367L25.2801 23.4114ZM14.1142 6.43551C12.9957 6.43551 11.923 6.87982 11.1321 7.67071C10.3412 8.4616 9.89692 9.53428 9.89692 10.6528C9.89692 11.7712 10.3412 12.8439 11.1321 13.6348C11.923 14.4257 12.9957 14.87 14.1142 14.87C15.2327 14.87 16.3053 14.4257 17.0962 13.6348C17.8871 12.8439 18.3314 11.7712 18.3314 10.6528C18.3314 9.53428 17.8871 8.4616 17.0962 7.67071C16.3053 6.87982 15.2327 6.43551 14.1142 6.43551Z" fill="white"/>
</svg>
