<svg width="555" height="523" viewBox="0 0 555 523" fill="none" xmlns="http://www.w3.org/2000/svg">
<path d="M1.77301 185.005C20.8675 178.64 62.57 175.84 76.6237 215.556C90.6774 255.273 114.558 259.601 124.742 256.801" stroke="#00FFEA" stroke-width="3" stroke-linecap="round"/>
<path d="M430.258 261.216C449.352 254.851 491.055 252.05 505.109 291.767C519.162 331.484 543.043 335.812 553.227 333.012" stroke="#00FFEA" stroke-width="3" stroke-linecap="round"/>
<g filter="url(#filter0_d_2287_3281)">
<path d="M257.596 126.376C264.333 118.041 277.041 118.041 283.779 126.376L297.94 143.895C302.126 149.074 308.972 151.298 315.403 149.569L337.157 143.72C347.507 140.937 357.788 148.406 358.34 159.11L359.499 181.607C359.842 188.257 364.073 194.08 370.292 196.461L391.329 204.516C401.338 208.348 405.265 220.434 399.42 229.418L387.135 248.299C383.503 253.881 383.503 261.079 387.135 266.661L399.42 285.542C405.265 294.526 401.338 306.612 391.329 310.444L370.292 318.499C364.073 320.88 359.842 326.703 359.499 333.354L358.34 355.85C357.788 366.554 347.507 374.023 337.157 371.24L315.403 365.391C308.972 363.662 302.126 365.887 297.94 371.065L283.779 388.584C277.041 396.919 264.333 396.919 257.595 388.584L243.434 371.065C239.248 365.887 232.402 363.662 225.972 365.391L204.218 371.24C193.868 374.023 183.587 366.554 183.035 355.85L181.875 333.354C181.533 326.703 177.302 320.88 171.083 318.499L150.046 310.444C140.036 306.612 136.11 294.526 141.955 285.542L154.24 266.661C157.871 261.079 157.871 253.881 154.24 248.299L141.955 229.418C136.11 220.434 140.036 208.348 150.046 204.516L171.083 196.461C177.302 194.08 181.533 188.257 181.875 181.607L183.035 159.11C183.587 148.406 193.868 140.937 204.218 143.72L225.972 149.569C232.402 151.298 239.248 149.074 243.434 143.895L257.596 126.376Z" fill="url(#paint0_linear_2287_3281)"/>
</g>
<path d="M307.417 232.227L256.914 282.729L233.958 259.773" fill="url(#paint1_linear_2287_3281)"/>
<path d="M307.417 232.227L256.914 282.729L233.958 259.773" stroke="white" stroke-width="5" stroke-linecap="round" stroke-linejoin="round"/>
<path d="M438.407 112.201C439.069 108.183 444.847 108.183 445.509 112.201L447.556 124.632L459.986 126.679C464.005 127.341 464.005 133.119 459.986 133.781L447.556 135.829L445.509 148.259C444.847 152.278 439.069 152.278 438.407 148.259L436.359 135.829L423.929 133.781C419.91 133.119 419.91 127.341 423.929 126.679L436.359 124.632L438.407 112.201Z" fill="white"/>
<path d="M101.378 347.168C102.007 343.35 107.496 343.35 108.125 347.168L110.07 358.977L121.879 360.922C125.696 361.551 125.696 367.04 121.879 367.669L110.07 369.614L108.125 381.423C107.496 385.24 102.007 385.24 101.378 381.423L99.4329 369.614L87.624 367.669C83.8064 367.04 83.8064 361.551 87.624 360.922L99.4329 358.977L101.378 347.168Z" fill="white"/>
<path d="M90.6193 122.227C91.0826 119.414 95.1273 119.414 95.5906 122.227L97.0239 130.928L105.725 132.361C108.538 132.825 108.538 136.869 105.725 137.333L97.0239 138.766L95.5906 147.467C95.1273 150.28 91.0826 150.28 90.6193 147.467L89.1861 138.766L80.4848 137.333C77.6718 136.869 77.6718 132.825 80.4848 132.361L89.1861 130.928L90.6193 122.227Z" fill="white"/>
<path d="M458.639 388.5C459.102 385.687 463.147 385.687 463.61 388.5L465.043 397.202L473.744 398.635C476.557 399.098 476.557 403.143 473.744 403.606L465.043 405.039L463.61 413.741C463.147 416.554 459.102 416.554 458.639 413.741L457.205 405.039L448.504 403.606C445.691 403.143 445.691 399.098 448.504 398.635L457.205 397.202L458.639 388.5Z" fill="white"/>
<ellipse cx="447.082" cy="213.644" rx="8.41709" ry="8.4171" fill="#FFE609"/>
<ellipse cx="233.958" cy="45.2062" rx="8.41709" ry="8.4171" fill="#FFE609"/>
<ellipse cx="351.315" cy="481.792" rx="8.41709" ry="8.4171" fill="#FFE609"/>
<ellipse cx="188.917" cy="430.503" rx="5.26068" ry="5.26068" fill="#FFE609"/>
<defs>
<filter id="filter0_d_2287_3281" x="15.2243" y="0.125" width="510.926" height="522.711" filterUnits="userSpaceOnUse" color-interpolation-filters="sRGB">
<feFlood flood-opacity="0" result="BackgroundImageFix"/>
<feColorMatrix in="SourceAlpha" type="matrix" values="0 0 0 0 0 0 0 0 0 0 0 0 0 0 0 0 0 0 127 0" result="hardAlpha"/>
<feOffset dy="4"/>
<feGaussianBlur stdDeviation="62"/>
<feComposite in2="hardAlpha" operator="out"/>
<feColorMatrix type="matrix" values="0 0 0 0 0.356863 0 0 0 0 0.498039 0 0 0 0 0.376471 0 0 0 1 0"/>
<feBlend mode="normal" in2="BackgroundImageFix" result="effect1_dropShadow_2287_3281"/>
<feBlend mode="normal" in="SourceGraphic" in2="effect1_dropShadow_2287_3281" result="shape"/>
</filter>
<linearGradient id="paint0_linear_2287_3281" x1="100.744" y1="69.4158" x2="406.838" y2="379.459" gradientUnits="userSpaceOnUse">
<stop offset="0.2" stop-color="#619267"/>
<stop offset="0.920029" stop-color="#04271C"/>
</linearGradient>
<linearGradient id="paint1_linear_2287_3281" x1="223.207" y1="222.904" x2="274.626" y2="302.055" gradientUnits="userSpaceOnUse">
<stop offset="0.2" stop-color="#619267"/>
<stop offset="0.920029" stop-color="#04271C"/>
</linearGradient>
</defs>
</svg>
