<svg width="48" height="48" viewBox="0 0 48 48" fill="none" xmlns="http://www.w3.org/2000/svg">
<path d="M24 25.7998L19.74 29.9798C18.62 31.0998 18 32.5598 18 34.1198C18 37.3598 20.7 39.9998 24 39.9998C27.3 39.9998 30 37.3598 30 34.1198C30 32.5598 29.38 31.0798 28.26 29.9798L24 25.7998Z" fill="#C4BD47"/>
<path d="M32 12L31.12 13.1C28.76 16.04 24 14.38 24 10.6V4C24 4 8 12 8 26C8 31.84 11.12 36.94 15.78 39.72C14.66 38.14 14 36.2 14 34.12C14 31.48 15.04 29 16.94 27.12L24 20.2L31.06 27.14C32.96 29 34 31.48 34 34.14C34 36.18 33.38 38.06 32.3 39.64C36.08 37.34 38.88 33.52 39.72 29.04C41.04 21.94 37.58 15.24 32 12Z" fill="#C4BD47"/>
</svg>
