<svg width="12" height="12" viewBox="0 0 12 12" fill="none" xmlns="http://www.w3.org/2000/svg">
<path d="M10.2293 3.80659C9.75797 3.80659 9.37664 4.18793 9.37664 4.65859V7.67859C9.37664 7.90473 9.46647 8.12161 9.62638 8.28152C9.78628 8.44143 10.0032 8.53126 10.2293 8.53126C10.4554 8.53126 10.6723 8.44143 10.8322 8.28152C10.9921 8.12161 11.082 7.90473 11.082 7.67859V4.65859C11.082 4.18793 10.7006 3.80659 10.2293 3.80659ZM1.77064 3.80659C1.2993 3.80659 0.917969 4.18793 0.917969 4.65859V7.67859C0.917969 7.90473 1.0078 8.12161 1.16771 8.28152C1.32762 8.44143 1.54449 8.53126 1.77064 8.53126C1.99678 8.53126 2.21366 8.44143 2.37356 8.28152C2.53347 8.12161 2.6233 7.90473 2.6233 7.67859V4.65859C2.62339 4.54663 2.60139 4.43574 2.55856 4.33229C2.51574 4.22884 2.45292 4.13485 2.37372 4.05571C2.29451 3.97656 2.20048 3.91382 2.09699 3.87108C1.9935 3.82833 1.8826 3.80642 1.77064 3.80659ZM7.69664 1.26726L8.20864 0.341926C8.2236 0.315582 8.23318 0.286526 8.23682 0.256448C8.24046 0.226369 8.23809 0.195867 8.22984 0.166714C8.22159 0.13756 8.20763 0.110337 8.18877 0.086626C8.16991 0.0629147 8.14652 0.0431881 8.11997 0.0285924C8.09349 0.0136642 8.06432 0.00414742 8.03413 0.000595187C8.00395 -0.00295705 7.97336 -0.000473908 7.94414 0.00790033C7.91492 0.0162746 7.88766 0.0303729 7.86394 0.0493756C7.84022 0.0683784 7.82052 0.0919065 7.80597 0.118592L7.27997 1.06526C6.88797 0.908592 6.45597 0.819926 5.99997 0.819926C5.54397 0.819926 5.11197 0.907926 4.71997 1.06459L4.19397 0.119259C4.17942 0.0925731 4.15972 0.069045 4.136 0.0500422C4.11228 0.0310395 4.08501 0.0169413 4.0558 0.00856711C4.02658 0.000192869 3.99599 -0.00229027 3.96581 0.00126196C3.93562 0.0048142 3.90644 0.0143309 3.87997 0.029259C3.85355 0.0439856 3.83029 0.0637792 3.81153 0.0875062C3.79277 0.111233 3.77887 0.138428 3.77064 0.167533C3.7624 0.196638 3.75999 0.227082 3.76353 0.257121C3.76708 0.28716 3.77652 0.316205 3.7913 0.342592L4.3033 1.26793C3.3813 1.79326 2.7653 2.73259 2.7653 3.80659C2.7653 3.81393 2.7653 3.82059 2.76664 3.82926C2.7653 3.83326 2.7653 3.83793 2.7653 3.84193V3.84259H9.23397V3.80659C9.23464 2.73259 8.61864 1.79393 7.69664 1.26726ZM4.50664 2.57926C4.4763 2.57904 4.4463 2.57285 4.41836 2.56104C4.39042 2.54923 4.36508 2.53203 4.34378 2.51042C4.30077 2.46679 4.27686 2.40786 4.2773 2.34659C4.27774 2.28533 4.30251 2.22675 4.34614 2.18374C4.38977 2.14073 4.4487 2.11682 4.50997 2.11726C4.57123 2.1177 4.62981 2.14246 4.67282 2.1861C4.71583 2.22973 4.73974 2.28866 4.7393 2.34993C4.73886 2.41119 4.7141 2.46977 4.67047 2.51278C4.62683 2.55579 4.5679 2.5797 4.50664 2.57926ZM7.4933 2.57926C7.43515 2.57484 7.38082 2.54861 7.34118 2.50584C7.30154 2.46307 7.27952 2.40691 7.27952 2.34859C7.27952 2.29028 7.30154 2.23411 7.34118 2.19134C7.38082 2.14857 7.43515 2.12235 7.4933 2.11793C7.55448 2.11793 7.61315 2.14223 7.65641 2.18549C7.69967 2.22874 7.72397 2.28742 7.72397 2.34859C7.72397 2.40977 7.69967 2.46844 7.65641 2.5117C7.61315 2.55496 7.55448 2.57926 7.4933 2.57926ZM2.7653 8.74659C2.7653 9.17726 3.1153 9.52726 3.54797 9.52726H3.93864V11.1279C3.93864 11.3541 4.02847 11.5709 4.18838 11.7309C4.34828 11.8908 4.56516 11.9806 4.7913 11.9806C5.01744 11.9806 5.23432 11.8908 5.39423 11.7309C5.55413 11.5709 5.64397 11.3541 5.64397 11.1279V9.52726H6.35464V11.1279C6.35464 11.5993 6.73597 11.9799 7.20597 11.9799C7.67864 11.9799 8.05997 11.5993 8.05997 11.1279V9.52726H8.45064C8.88264 9.52726 9.2333 9.17793 9.2333 8.74659V4.01859H2.7653V8.74659Z" fill="white"/>
</svg>
