<svg width="32" height="33" viewBox="0 0 32 33" fill="none" xmlns="http://www.w3.org/2000/svg">
<g id="apple 1" clip-path="url(#clip0_589_2383)">
<g id="Group">
<g id="Group_2">
<path id="Vector" d="M21.9986 0.5C20.2926 0.617999 18.2986 1.70999 17.1366 3.13198C16.0766 4.42198 15.2046 6.33797 15.5446 8.19995C17.4086 8.25795 19.3346 7.13996 20.4506 5.69397C21.4946 4.34798 22.2846 2.44399 21.9986 0.5Z" fill="white"/>
</g>
</g>
<g id="Group_3">
<g id="Group_4">
<path id="Vector_2" d="M28.7406 11.2343C27.1026 9.18027 24.8006 7.98828 22.6266 7.98828C19.7566 7.98828 18.5427 9.36227 16.5487 9.36227C14.4927 9.36227 12.9307 7.99228 10.4487 7.99228C8.01071 7.99228 5.41473 9.48227 3.76874 12.0303C1.45475 15.6182 1.85075 22.3642 5.60073 28.1102C6.94272 30.1662 8.73471 32.4781 11.0787 32.4981C13.1647 32.5181 13.7527 31.1602 16.5787 31.1462C19.4046 31.1302 19.9406 32.5161 22.0226 32.4941C24.3686 32.4761 26.2586 29.9142 27.6006 27.8582C28.5626 26.3842 28.9206 25.6422 29.6666 23.9782C24.2406 21.9122 23.3706 14.1962 28.7406 11.2343Z" fill="white"/>
</g>
</g>
</g>
<defs>
<clipPath id="clip0_589_2383">
<rect width="32" height="32" fill="white" transform="translate(0 0.5)"/>
</clipPath>
</defs>
</svg>
