<svg width="12" height="12" viewBox="0 0 12 12" fill="none" xmlns="http://www.w3.org/2000/svg">
<path d="M9.36661 11.52C8.71328 12.1533 7.99995 12.0533 7.31328 11.7533C6.58661 11.4467 5.91995 11.4333 5.15328 11.7533C4.19328 12.1667 3.68661 12.0467 3.11328 11.52C-0.140053 8.16667 0.339947 3.06 4.03328 2.87333C4.93328 2.92 5.55995 3.36667 6.08661 3.40667C6.87328 3.24667 7.62661 2.78667 8.46661 2.84667C9.47328 2.92667 10.2333 3.32667 10.7333 4.04667C8.65328 5.29333 9.14661 8.03333 11.0533 8.8C10.6733 9.8 10.1799 10.7933 9.35995 11.5267L9.36661 11.52ZM6.01995 2.83333C5.91995 1.34667 7.12661 0.12 8.51328 0C8.70661 1.72 6.95328 3 6.01995 2.83333Z" fill="white"/>
</svg>
