<svg width="24" height="24" viewBox="0 0 24 24" fill="none" xmlns="http://www.w3.org/2000/svg">
<path d="M16 12.9973L21.223 16.4793C21.2983 16.5294 21.3858 16.5582 21.4761 16.5625C21.5664 16.5668 21.6563 16.5466 21.736 16.5039C21.8157 16.4612 21.8824 16.3977 21.9289 16.3201C21.9754 16.2425 22 16.1538 22 16.0633V7.86734C22 7.77936 21.9768 7.69293 21.9328 7.61678C21.8887 7.54063 21.8253 7.47746 21.7491 7.43363C21.6728 7.38981 21.5863 7.36689 21.4983 7.36719C21.4103 7.36749 21.324 7.391 21.248 7.43534L16 10.4973" stroke="url(#paint0_linear_2384_12192)" stroke-width="2" stroke-linecap="round" stroke-linejoin="round"/>
<path d="M14 6H4C2.89543 6 2 6.89543 2 8V16C2 17.1046 2.89543 18 4 18H14C15.1046 18 16 17.1046 16 16V8C16 6.89543 15.1046 6 14 6Z" stroke="url(#paint1_linear_2384_12192)" stroke-width="2" stroke-linecap="round" stroke-linejoin="round"/>
<defs>
<linearGradient id="paint0_linear_2384_12192" x1="15.1219" y1="5.6697" x2="24.7045" y2="12.2866" gradientUnits="userSpaceOnUse">
<stop offset="0.2" stop-color="#5B7F60"/>
<stop offset="0.536968" stop-color="#3E6042"/>
<stop offset="0.920029" stop-color="#04271C"/>
</linearGradient>
<linearGradient id="paint1_linear_2384_12192" x1="-0.0489579" y1="3.7849" x2="13.0313" y2="19.9349" gradientUnits="userSpaceOnUse">
<stop offset="0.2" stop-color="#5B7F60"/>
<stop offset="0.536968" stop-color="#3E6042"/>
<stop offset="0.920029" stop-color="#04271C"/>
</linearGradient>
</defs>
</svg>
