<svg width="150" height="136" viewBox="0 0 150 136" fill="none" xmlns="http://www.w3.org/2000/svg">
<path d="M44.3182 87.176L27.6818 96.764L32.7954 105.604L54.5455 93.092V68H44.3182V87.176ZM0 88.4C0 114.716 21.3409 136 47.7273 136C74.1136 136 95.4545 114.716 95.4545 88.4C95.4545 86.088 95.25 83.844 94.9091 81.6H150V0H27.2727V45.424C11.1818 53.108 0 69.428 0 88.4ZM90.8182 68C89.5909 65.552 88.2955 63.24 86.7273 60.996C87.3409 61.2 87.9545 61.2 88.6364 61.2C99.9545 61.2 109.091 52.088 109.091 40.8C109.091 29.512 99.9545 20.4 88.6364 20.4C77.3182 20.4 68.1818 29.512 68.1818 40.8C68.1818 42.5 68.4545 44.2 68.8636 45.764C62.4545 42.636 55.2955 40.8 47.7273 40.8C45.4091 40.8 43.1591 41.004 40.9091 41.344V27.2C44.5257 27.2 47.9941 25.7671 50.5515 23.2167C53.1088 20.6662 54.5455 17.2069 54.5455 13.6H122.727C122.727 21.148 128.795 27.2 136.364 27.2V54.4C132.747 54.4 129.279 55.8329 126.721 58.3834C124.164 60.9338 122.727 64.3931 122.727 68H90.8182ZM13.6364 88.4C13.6364 69.632 28.9091 54.4 47.7273 54.4C66.5455 54.4 81.8182 69.632 81.8182 88.4C81.8182 107.168 66.5455 122.4 47.7273 122.4C28.9091 122.4 13.6364 107.168 13.6364 88.4Z" fill="#619267"/>
</svg>
