<svg width="24" height="25" viewBox="0 0 24 25" fill="none" xmlns="http://www.w3.org/2000/svg">
<path d="M9 18.0156C8.45 18.0156 7.97933 17.82 7.588 17.4286C7.19667 17.0373 7.00067 16.5663 7 16.0156V4.01562C7 3.46563 7.196 2.99496 7.588 2.60363C7.98 2.21229 8.45067 2.01629 9 2.01562H18C18.55 2.01562 19.021 2.21163 19.413 2.60363C19.805 2.99563 20.0007 3.46629 20 4.01562V16.0156C20 16.5656 19.8043 17.0366 19.413 17.4286C19.0217 17.8206 18.5507 18.0163 18 18.0156H9ZM5 22.0156C4.45 22.0156 3.97933 21.82 3.588 21.4286C3.19667 21.0373 3.00067 20.5663 3 20.0156V6.01562H5V20.0156H16V22.0156H5Z" fill="white"/>
</svg>
