<svg width="24" height="24" viewBox="0 0 24 24" fill="none" xmlns="http://www.w3.org/2000/svg">
<g clip-path="url(#clip0_2483_4015)">
<path d="M12 24C18.6274 24 24 18.6274 24 12C24 5.37258 18.6274 0 12 0C5.37258 0 0 5.37258 0 12C0 18.6274 5.37258 24 12 24Z" fill="#405866"/>
<path d="M10.9928 23.3449C12.911 23.3449 14.466 21.7899 14.466 19.8717C14.466 17.9535 12.911 16.3984 10.9928 16.3984C9.07456 16.3984 7.51953 17.9535 7.51953 19.8717C7.51953 21.7899 9.07456 23.3449 10.9928 23.3449Z" fill="#4F6977"/>
<path d="M15.7302 9.12387C15.7196 9.50813 15.5595 9.87309 15.2839 10.1411C15.0084 10.4092 14.6391 10.5591 14.2547 10.5591C13.8703 10.5591 13.5011 10.4092 13.2256 10.1411C12.95 9.87309 12.7899 9.50813 12.7793 9.12387C12.7793 8.73256 12.9347 8.35728 13.2114 8.08058C13.4881 7.80388 13.8634 7.64844 14.2547 7.64844C14.646 7.64844 15.0213 7.80388 15.298 8.08058C15.5747 8.35728 15.7302 8.73256 15.7302 9.12387Z" fill="#4F6977"/>
<path d="M2.19945 15.1137C2.99889 15.1137 3.64695 14.4657 3.64695 13.6662C3.64695 12.8668 2.99889 12.2188 2.19945 12.2188C1.40002 12.2188 0.751953 12.8668 0.751953 13.6662C0.751953 14.4657 1.40002 15.1137 2.19945 15.1137Z" fill="#4F6977"/>
<path d="M2.33041 7.85612C2.78687 7.85612 3.15691 7.48609 3.15691 7.02963C3.15691 6.57316 2.78687 6.20312 2.33041 6.20312C1.87394 6.20312 1.50391 6.57316 1.50391 7.02963C1.50391 7.48609 1.87394 7.85612 2.33041 7.85612Z" fill="#4F6977"/>
<path d="M6.55397 8.60013C7.26766 8.60013 7.84622 8.02157 7.84622 7.30788C7.84622 6.59419 7.26766 6.01562 6.55397 6.01562C5.84028 6.01562 5.26172 6.59419 5.26172 7.30788C5.26172 8.02157 5.84028 8.60013 6.55397 8.60013Z" fill="#4F6977"/>
<path d="M17.923 4.07769C17.923 4.31668 17.8759 4.55333 17.7844 4.77412C17.693 4.99492 17.5589 5.19554 17.3899 5.36453C17.2209 5.53352 17.0203 5.66758 16.7995 5.75903C16.5787 5.85049 16.3421 5.89756 16.1031 5.89756C15.8641 5.89756 15.6274 5.85049 15.4066 5.75903C15.1858 5.66758 14.9852 5.53352 14.8162 5.36453C14.6472 5.19554 14.5132 4.99492 14.4217 4.77412C14.3303 4.55333 14.2832 4.31668 14.2832 4.07769C14.2832 3.59503 14.4749 3.13213 14.8162 2.79084C15.1575 2.44955 15.6204 2.25781 16.1031 2.25781C16.5857 2.25781 17.0486 2.44955 17.3899 2.79084C17.7312 3.13213 17.923 3.59503 17.923 4.07769Z" fill="#4F6977"/>
</g>
<defs>
<clipPath id="clip0_2483_4015">
<rect width="24" height="24" fill="white"/>
</clipPath>
</defs>
</svg>
