<svg width="24" height="30" viewBox="0 0 24 30" fill="none" xmlns="http://www.w3.org/2000/svg">
<path fill-rule="evenodd" clip-rule="evenodd" d="M8.43948 5.88015L0.16748 4.42265L0.406731 3.0669C0.422494 2.97795 0.455633 2.89299 0.504251 2.81685C0.55287 2.74072 0.616015 2.67491 0.690079 2.6232C0.764143 2.57148 0.847672 2.53487 0.935893 2.51545C1.02411 2.49603 1.1153 2.49419 1.20423 2.51003L20.3154 5.88015H20.4364H20.3167L22.8674 6.32978C22.9564 6.34538 23.0415 6.3784 23.1178 6.42695C23.1941 6.4755 23.2601 6.53863 23.3119 6.61271C23.3638 6.68679 23.4005 6.77037 23.42 6.85867C23.4395 6.94697 23.4414 7.03825 23.4256 7.12728L23.1864 8.48028L20.3126 7.97428L19.2126 26.666C19.1716 27.3657 18.865 28.0233 18.3554 28.5046C17.8458 28.9858 17.1717 29.2542 16.4709 29.2551H6.53098C5.82938 29.2553 5.15426 28.9873 4.6438 28.506C4.13334 28.0246 3.82615 27.3664 3.78511 26.666L2.68648 7.94265H20.1352L8.43948 5.88015ZM7.37523 11.3802L8.06273 23.7551H10.1252L9.57523 11.3802H7.37523ZM13.5627 11.3802L12.8752 23.7551H14.9377L15.6252 11.3802H13.5627ZM9.92448 0.557526L15.342 1.51178C15.4309 1.52754 15.5159 1.56068 15.592 1.6093C15.6682 1.65792 15.734 1.72106 15.7857 1.79512C15.8374 1.86919 15.874 1.95272 15.8934 2.04094C15.9129 2.12916 15.9147 2.22034 15.8989 2.30928L15.6596 3.66228L8.88911 2.46878L9.12836 1.1144C9.14412 1.02545 9.17726 0.940486 9.22588 0.864353C9.2745 0.788219 9.33764 0.722414 9.4117 0.670697C9.48577 0.61898 9.5693 0.582366 9.65752 0.562948C9.74574 0.543529 9.83555 0.541687 9.92448 0.557526Z" fill="white"/>
</svg>
