<svg width="61" height="60" viewBox="0 0 61 60" fill="none" xmlns="http://www.w3.org/2000/svg">
<g clip-path="url(#paint0_diamond_582_7897_clip_path)" data-figma-skip-parse="true"><g transform="matrix(0.03 0 0 0.03 30.791 30)"><rect x="0" y="0" width="1014.41" height="1014.41" fill="url(#paint0_diamond_582_7897)" opacity="1" shape-rendering="crispEdges"/><rect x="0" y="0" width="1014.41" height="1014.41" transform="scale(1 -1)" fill="url(#paint0_diamond_582_7897)" opacity="1" shape-rendering="crispEdges"/><rect x="0" y="0" width="1014.41" height="1014.41" transform="scale(-1 1)" fill="url(#paint0_diamond_582_7897)" opacity="1" shape-rendering="crispEdges"/><rect x="0" y="0" width="1014.41" height="1014.41" transform="scale(-1)" fill="url(#paint0_diamond_582_7897)" opacity="1" shape-rendering="crispEdges"/></g></g><path d="M50.5744 24.0839C50.1546 10.9327 39.4981 0.319787 26.3025 0C25.9626 0 25.6827 0.259827 25.6827 0.5996L25.6627 9.43371C25.6627 9.87342 25.3228 10.2132 24.883 10.2332C11.7274 10.6329 1.11091 21.3058 0.791016 34.497C0.791016 34.8368 1.05093 35.1166 1.39082 35.1166L10.2079 35.1366C10.6477 35.1366 10.9876 35.4763 11.0076 35.9161C11.4275 49.0673 22.1039 59.6802 35.2795 60C35.6194 60 35.8993 59.7402 35.8993 59.4004L35.9193 50.5663C35.9193 50.1266 36.2592 49.7868 36.699 49.7668C49.8547 49.3471 60.4711 38.6742 60.791 25.503C60.791 25.1632 60.5311 24.8834 60.1912 24.8834L51.3742 24.8634C50.9343 24.8634 50.5944 24.5236 50.5744 24.0839ZM35.0396 49.7069C27.5621 49.2672 21.5641 43.1912 21.2842 35.6762C21.2642 35.3564 21.0043 35.0966 20.6844 35.0966L11.8873 35.0766C11.4275 35.0766 11.0676 34.6969 11.0876 34.2372C11.5274 26.7622 17.6054 20.7662 25.1229 20.4863C25.4428 20.4664 25.7027 20.2065 25.7027 19.8867L25.7227 11.0726C25.7227 10.6129 26.1026 10.2532 26.5624 10.2732C34.0399 10.7129 40.0379 16.7888 40.3178 24.3038C40.3378 24.6236 40.5977 24.8834 40.9176 24.8834L49.7147 24.9034C50.1746 24.9034 50.5344 25.2831 50.5144 25.7428C50.0746 33.4177 43.6967 39.5137 35.9193 39.5137L35.8993 48.9074C35.8793 49.3671 35.4994 49.7268 35.0396 49.7069Z" data-figma-gradient-fill="{&#34;type&#34;:&#34;GRADIENT_DIAMOND&#34;,&#34;stops&#34;:[{&#34;color&#34;:{&#34;r&#34;:1.0,&#34;g&#34;:1.0,&#34;b&#34;:1.0,&#34;a&#34;:1.0},&#34;position&#34;:0.10999999940395355},{&#34;color&#34;:{&#34;r&#34;:0.039215687662363052,&#34;g&#34;:0.28235295414924622,&#34;b&#34;:0.20392157137393951,&#34;a&#34;:1.0},&#34;position&#34;:0.93500000238418579}],&#34;stopsVar&#34;:[{&#34;color&#34;:{&#34;r&#34;:1.0,&#34;g&#34;:1.0,&#34;b&#34;:1.0,&#34;a&#34;:1.0},&#34;position&#34;:0.10999999940395355},{&#34;color&#34;:{&#34;r&#34;:0.039215687662363052,&#34;g&#34;:0.28235295414924622,&#34;b&#34;:0.20392157137393951,&#34;a&#34;:1.0},&#34;position&#34;:0.93500000238418579}],&#34;transform&#34;:{&#34;m00&#34;:60.0,&#34;m01&#34;:0.0,&#34;m02&#34;:0.7910156250,&#34;m10&#34;:0.0,&#34;m11&#34;:60.0,&#34;m12&#34;:0.0},&#34;opacity&#34;:1.0,&#34;blendMode&#34;:&#34;NORMAL&#34;,&#34;visible&#34;:true}"/>
<path fill-rule="evenodd" clip-rule="evenodd" d="M25.4219 24.686C25.4219 23.4767 26.7185 22.71 27.7781 23.2928L37.5644 28.6753C38.6628 29.2794 38.6628 30.8576 37.5644 31.4617L27.7781 36.8441C26.7185 37.4269 25.4219 36.6603 25.4219 35.451V24.686Z" fill="white"/>
<defs>
<clipPath id="paint0_diamond_582_7897_clip_path"><path d="M50.5744 24.0839C50.1546 10.9327 39.4981 0.319787 26.3025 0C25.9626 0 25.6827 0.259827 25.6827 0.5996L25.6627 9.43371C25.6627 9.87342 25.3228 10.2132 24.883 10.2332C11.7274 10.6329 1.11091 21.3058 0.791016 34.497C0.791016 34.8368 1.05093 35.1166 1.39082 35.1166L10.2079 35.1366C10.6477 35.1366 10.9876 35.4763 11.0076 35.9161C11.4275 49.0673 22.1039 59.6802 35.2795 60C35.6194 60 35.8993 59.7402 35.8993 59.4004L35.9193 50.5663C35.9193 50.1266 36.2592 49.7868 36.699 49.7668C49.8547 49.3471 60.4711 38.6742 60.791 25.503C60.791 25.1632 60.5311 24.8834 60.1912 24.8834L51.3742 24.8634C50.9343 24.8634 50.5944 24.5236 50.5744 24.0839ZM35.0396 49.7069C27.5621 49.2672 21.5641 43.1912 21.2842 35.6762C21.2642 35.3564 21.0043 35.0966 20.6844 35.0966L11.8873 35.0766C11.4275 35.0766 11.0676 34.6969 11.0876 34.2372C11.5274 26.7622 17.6054 20.7662 25.1229 20.4863C25.4428 20.4664 25.7027 20.2065 25.7027 19.8867L25.7227 11.0726C25.7227 10.6129 26.1026 10.2532 26.5624 10.2732C34.0399 10.7129 40.0379 16.7888 40.3178 24.3038C40.3378 24.6236 40.5977 24.8834 40.9176 24.8834L49.7147 24.9034C50.1746 24.9034 50.5344 25.2831 50.5144 25.7428C50.0746 33.4177 43.6967 39.5137 35.9193 39.5137L35.8993 48.9074C35.8793 49.3671 35.4994 49.7268 35.0396 49.7069Z"/></clipPath><linearGradient id="paint0_diamond_582_7897" x1="0" y1="0" x2="500" y2="500" gradientUnits="userSpaceOnUse">
<stop offset="0.11" stop-color="white"/>
<stop offset="0.935" stop-color="#0A4834"/>
</linearGradient>
</defs>
</svg>
