<svg width="19" height="19" viewBox="0 0 19 19" fill="none" xmlns="http://www.w3.org/2000/svg">
<path d="M15.125 10.5781C15.125 11.6906 14.7951 12.7782 14.177 13.7032C13.5589 14.6282 12.6804 15.3492 11.6526 15.7749C10.6248 16.2007 9.49376 16.3121 8.40262 16.095C7.31148 15.878 6.3092 15.3423 5.52253 14.5556C4.73586 13.7689 4.20013 12.7667 3.98309 11.6755C3.76604 10.5844 3.87744 9.45337 4.30318 8.42553C4.72892 7.3977 5.44989 6.51919 6.37492 5.90111C7.29995 5.28303 8.38748 4.95313 9.5 4.95313H11.75V7.76563L15.125 4.39063L11.75 1.01562V3.82813H9.5C8.16498 3.82813 6.85994 4.22401 5.7499 4.96571C4.63987 5.70741 3.77471 6.76161 3.26382 7.99501C2.75292 9.22841 2.61925 10.5856 2.8797 11.895C3.14015 13.2044 3.78303 14.4071 4.72703 15.3511C5.67104 16.2951 6.87377 16.938 8.18314 17.1984C9.49252 17.4589 10.8497 17.3252 12.0831 16.8143C13.3165 16.3034 14.3707 15.4383 15.1124 14.3282C15.8541 13.2182 16.25 11.9131 16.25 10.5781H15.125Z" fill="#EBE1CF"/>
<path d="M11.5419 12.8999C11.2934 12.906 11.0468 12.854 10.8219 12.748C10.6222 12.6467 10.4503 12.498 10.3213 12.3149C10.1802 12.1011 10.0809 11.8625 10.0288 11.6118C9.96236 11.3012 9.93029 10.9843 9.93315 10.6668C9.9316 10.3493 9.96366 10.0325 10.0288 9.72177C10.0822 9.4714 10.1814 9.23303 10.3213 9.01864C10.4503 8.83558 10.6222 8.68688 10.8219 8.58552C11.0468 8.47956 11.2934 8.42755 11.5419 8.43364C11.7756 8.41586 12.01 8.45822 12.2226 8.55669C12.4353 8.65516 12.6193 8.80645 12.7569 8.99614C13.047 9.49501 13.1839 10.0682 13.1507 10.6443C13.1839 11.2204 13.047 11.7935 12.7569 12.2924C12.6245 12.4904 12.4429 12.6505 12.2298 12.757C12.0168 12.8635 11.7797 12.9128 11.5419 12.8999ZM11.5419 12.2136C11.6553 12.2204 11.7683 12.195 11.8678 12.1402C11.9674 12.0855 12.0494 12.0037 12.1044 11.9043C12.2384 11.641 12.3097 11.3503 12.3125 11.0549V10.2786C12.3249 9.9885 12.269 9.69951 12.1494 9.43489C12.0865 9.33856 12.0006 9.25943 11.8995 9.20465C11.7983 9.14988 11.6851 9.12119 11.57 9.12119C11.455 9.12119 11.3418 9.14988 11.2406 9.20465C11.1394 9.25943 11.0535 9.33856 10.9907 9.43489C10.871 9.69951 10.8152 9.9885 10.8275 10.2786V11.0549C10.8163 11.3468 10.8721 11.6373 10.9907 11.9043C11.0443 12.0023 11.1244 12.0833 11.2219 12.138C11.3194 12.1927 11.4303 12.2189 11.5419 12.2136ZM6.4794 12.8268V12.163H7.6044V9.24364L6.55815 9.80614L6.24878 9.20989L7.55378 8.47864H8.37503V12.1349H9.37628V12.8268H6.4794Z" fill="#EBE1CF"/>
</svg>
