<svg width="32" height="33" viewBox="0 0 32 33" fill="none" xmlns="http://www.w3.org/2000/svg">
<g id="google-play-5 1" clip-path="url(#clip0_589_1533)">
<g id="Group 10">
<path id="Vector" d="M19.8024 10.2693L3.01889 0.624154C2.808 0.501025 2.54267 0.507865 2.33857 0.630995C2.12767 0.754124 1.99841 0.973021 1.99841 1.21928C1.99841 1.21928 2.00522 2.10855 2.01202 3.57242L14.2374 15.8649L19.8024 10.2693Z" fill="url(#paint0_linear_589_1533)"/>
<path id="Vector_2" d="M2.01196 3.57422C2.03237 8.85512 2.0936 21.6743 2.12081 28.0565L14.2441 15.8667L2.01196 3.57422Z" fill="url(#paint1_linear_589_1533)"/>
<path id="Vector_3" d="M29.4086 15.7898L19.8024 10.2695L14.2306 15.8651L20.5168 22.1857L29.4154 16.9733C29.6263 16.8501 29.7555 16.6244 29.7555 16.385C29.7555 16.1387 29.6195 15.913 29.4086 15.7898V15.7898Z" fill="url(#paint2_linear_589_1533)"/>
<path id="Vector_4" d="M2.11414 28.0541C2.12774 30.332 2.13455 31.789 2.13455 31.789C2.13455 32.0353 2.26381 32.261 2.47471 32.3773C2.6856 32.5004 2.94413 32.5004 3.15502 32.3773L20.5236 22.1917L14.2374 15.8711L2.11414 28.0541Z" fill="url(#paint3_linear_589_1533)"/>
</g>
</g>
<defs>
<linearGradient id="paint0_linear_589_1533" x1="1.99841" y1="8.20305" x2="19.8055" y2="8.20305" gradientUnits="userSpaceOnUse">
<stop stop-color="#63BE6B"/>
<stop offset="0.506" stop-color="#5BBC6A"/>
<stop offset="1" stop-color="#4AB96A"/>
</linearGradient>
<linearGradient id="paint1_linear_589_1533" x1="2.0087" y1="15.8183" x2="14.237" y2="15.8183" gradientUnits="userSpaceOnUse">
<stop stop-color="#3EC6F2"/>
<stop offset="1" stop-color="#45AFE3"/>
</linearGradient>
<linearGradient id="paint2_linear_589_1533" x1="14.2371" y1="16.232" x2="29.7539" y2="16.232" gradientUnits="userSpaceOnUse">
<stop stop-color="#FAA51A"/>
<stop offset="0.387" stop-color="#FAB716"/>
<stop offset="0.741" stop-color="#FAC412"/>
<stop offset="1" stop-color="#FAC80F"/>
</linearGradient>
<linearGradient id="paint3_linear_589_1533" x1="2.11713" y1="24.1701" x2="20.5233" y2="24.1701" gradientUnits="userSpaceOnUse">
<stop stop-color="#EC3B50"/>
<stop offset="1" stop-color="#E7515B"/>
</linearGradient>
<clipPath id="clip0_589_1533">
<rect width="32" height="32" fill="white" transform="translate(0 0.5)"/>
</clipPath>
</defs>
</svg>
