<svg width="24" height="25" viewBox="0 0 24 25" fill="none" xmlns="http://www.w3.org/2000/svg">
<path d="M3.98002 8.723C3.04503 9.82755 2.34845 11.1135 1.93402 12.5C3.22602 16.839 7.24402 20 12 20C12.993 20 13.953 19.862 14.863 19.605M6.22802 6.728C7.94064 5.59781 9.9481 4.99682 12 5C16.756 5 20.773 8.162 22.065 12.499C21.3569 14.868 19.837 16.912 17.772 18.272M6.22802 6.728L3.00002 3.5M6.22802 6.728L9.87802 10.378M17.772 18.272L21 21.5M17.772 18.272L14.122 14.622C14.4006 14.3434 14.6216 14.0127 14.7724 13.6486C14.9232 13.2846 15.0008 12.8945 15.0008 12.5005C15.0008 12.1065 14.9232 11.7164 14.7724 11.3524C14.6216 10.9883 14.4006 10.6576 14.122 10.379C13.8434 10.1004 13.5127 9.8794 13.1487 9.72863C12.7847 9.57785 12.3945 9.50025 12.0005 9.50025C11.6065 9.50025 11.2164 9.57785 10.8524 9.72863C10.4884 9.8794 10.1576 10.1004 9.87902 10.379M14.121 14.621L9.88002 10.38" stroke="#FAF6F0" stroke-width="1.5" stroke-linecap="round" stroke-linejoin="round"/>
</svg>
