<svg width="42" height="36" viewBox="0 0 42 36" fill="none" xmlns="http://www.w3.org/2000/svg">
<path d="M24 0C19.2261 0 14.6477 1.89642 11.2721 5.27208C7.89642 8.64773 6 13.2261 6 18H0L7.78 25.78L7.92 26.06L16 18H10C10 10.26 16.26 4 24 4C31.74 4 38 10.26 38 18C38 25.74 31.74 32 24 32C20.14 32 16.64 30.42 14.12 27.88L11.28 30.72C12.9468 32.396 14.929 33.7255 17.1121 34.6317C19.2953 35.5379 21.6362 36.0029 24 36C28.7739 36 33.3523 34.1036 36.7279 30.7279C40.1036 27.3523 42 22.7739 42 18C42 13.2261 40.1036 8.64773 36.7279 5.27208C33.3523 1.89642 28.7739 7.11366e-08 24 0ZM22 10V20L30.56 25.08L32 22.66L25 18.5V10H22Z" fill="#C4BD47"/>
</svg>
