<svg width="24" height="24" viewBox="0 0 24 24" fill="none" xmlns="http://www.w3.org/2000/svg">
<path d="M11.4156 3.79708C11.2412 4.12333 11.2994 4.37458 11.6462 4.45708C11.9931 4.53958 14.1512 4.89021 14.3331 4.90146C14.5975 4.91833 14.695 4.71958 14.6631 4.48896C14.6294 4.25833 14.1025 1.02771 14.0537 0.731457C14.005 0.435207 13.6919 0.138957 13.3937 0.534582C13.0956 0.930207 11.5469 3.55146 11.4156 3.79708ZM17.0031 6.03958C16.6637 6.14458 16.6731 6.35271 16.855 6.61708C17.0369 6.88146 18.2894 8.79208 18.4037 8.92521C18.52 9.05646 18.7169 9.09021 18.8819 8.89146C19.0469 8.69458 21.1056 5.80708 21.2556 5.62708C21.5031 5.33083 21.355 5.01771 20.9762 5.11521C20.6875 5.19208 17.2169 5.97396 17.0031 6.03958ZM19.5906 11.5952C19.3469 11.4565 19.03 11.4958 18.9475 11.809C18.865 12.1221 18.5031 14.3965 18.4694 14.5952C18.4356 14.794 18.5856 14.9908 18.8312 14.9421C19.0769 14.8933 22.4781 14.389 22.705 14.3327C23.1006 14.2333 23.2319 13.8377 22.8212 13.5415C22.555 13.3483 19.8212 11.7265 19.5906 11.5952ZM16.87 16.984C17.1325 16.8433 17.365 16.9502 17.4306 17.2483C17.4962 17.5446 18.2219 20.5783 18.3381 21.139C18.3962 21.4202 18.0737 21.6508 17.8112 21.4858C17.5469 21.3208 14.6819 19.324 14.4981 19.1608C14.2337 18.9302 14.4175 18.6902 14.5469 18.5683C14.8094 18.319 16.6225 17.1171 16.87 16.984ZM8.89185 18.649C8.55998 18.6171 8.46248 18.9133 8.5131 19.1758C8.56185 19.4402 9.05685 22.7833 9.0906 23.0327C9.13935 23.3946 9.51998 23.5446 9.7656 23.1808C10.0112 22.8171 11.7062 20.1058 11.8431 19.8508C12.0906 19.3896 11.9087 19.2902 11.6612 19.1758C11.4156 19.0615 9.23873 18.6827 8.89185 18.649ZM4.14623 14.809C4.37685 14.4302 4.6731 14.5296 4.88873 14.8915C5.03498 15.139 6.27248 16.804 6.38873 16.984C6.50498 17.1658 6.55373 17.5108 6.19185 17.5933C5.82623 17.6777 2.87685 18.4521 2.4156 18.5346C1.95435 18.6171 1.68998 18.2552 1.98623 17.8596C2.15873 17.6271 4.01498 15.0246 4.14623 14.809ZM3.51998 11.9402C3.94185 12.1277 4.1406 12.0602 4.22873 11.7583C4.34498 11.3627 4.68998 9.54958 4.70685 9.13708C4.7181 8.86896 4.60748 8.61021 4.19498 8.67583C3.78248 8.74146 0.816228 9.15583 0.437478 9.28708C-0.00314702 9.44083 0.028728 9.92458 0.321228 10.0783C0.668103 10.2602 3.22185 11.809 3.51998 11.9402ZM8.64623 5.01771C8.88435 4.82833 8.81123 4.55646 8.59748 4.40833C8.38373 4.26021 5.73623 2.34583 5.4006 2.08333C5.10435 1.85271 4.7406 1.93521 4.83998 2.46208C4.91123 2.84083 5.75498 6.15583 5.8131 6.38458C5.87873 6.64896 6.07748 6.78021 6.3081 6.61521C6.53498 6.45208 8.39873 5.21646 8.64623 5.01771Z" fill="#FFA722"/>
</svg>
