<svg width="28" height="28" viewBox="0 0 28 28" fill="none" xmlns="http://www.w3.org/2000/svg">
<path d="M7.738 11.957C8.67874 11.957 9.52756 11.4369 10.1081 10.6966C11.0101 9.54651 12.147 8.58933 13.4465 7.89728C14.289 7.4486 15.02 6.78203 15.3745 5.89577C15.6226 5.27564 15.75 4.61388 15.75 3.94597V3.20703C15.75 2.72378 16.1418 2.33203 16.625 2.33203C18.0747 2.33203 19.25 3.50728 19.25 4.95703C19.25 6.3006 18.9472 7.57344 18.4061 8.71102C18.0962 9.36241 18.5309 10.207 19.2522 10.207M19.2522 10.207H22.899C24.0968 10.207 25.1689 11.0167 25.2957 12.2077C25.3481 12.7003 25.375 13.2005 25.375 13.707C25.375 17.0293 24.2178 20.0812 22.2845 22.4818C21.8323 23.0433 21.1332 23.332 20.4123 23.332H15.727C15.1627 23.332 14.6021 23.2411 14.0668 23.0626L10.4332 21.8514C9.89791 21.673 9.33732 21.582 8.77304 21.582H6.88824M19.2522 10.207H16.625M6.88824 21.582C6.98485 21.8207 7.08999 22.055 7.20327 22.2846C7.43326 22.7507 7.11223 23.332 6.59245 23.332H5.53337C4.49654 23.332 3.5349 22.7277 3.23232 21.736C2.83743 20.4418 2.625 19.068 2.625 17.6445C2.625 15.8333 2.96894 14.1025 3.59507 12.5137C3.95097 11.6106 4.86189 11.082 5.83258 11.082H7.0608C7.61138 11.082 7.93019 11.7306 7.64435 12.2012C6.6802 13.7885 6.125 15.6517 6.125 17.6445C6.125 19.037 6.39604 20.3661 6.88824 21.582Z" stroke="#EBE1CF" stroke-width="2" stroke-linecap="round" stroke-linejoin="round"/>
</svg>
