<svg width="20" height="21" viewBox="0 0 20 21" fill="none" xmlns="http://www.w3.org/2000/svg">
<path d="M9.76201 0.335938C6.61763 0.335938 3.7062 1.73094 1.77558 4.07994C1.72058 4.14652 1.67953 4.22349 1.65488 4.30627C1.63022 4.38905 1.62247 4.47594 1.63208 4.56177C1.64169 4.64761 1.66846 4.73063 1.7108 4.80591C1.75315 4.88118 1.8102 4.94717 1.87856 4.99994C2.01772 5.10904 2.19391 5.15962 2.36974 5.14095C2.54557 5.12228 2.70721 5.03583 2.82037 4.89994C3.66453 3.87711 4.72518 3.05448 5.92578 2.49141C7.12638 1.92834 8.43699 1.63889 9.76301 1.64394C14.677 1.64394 18.6613 5.53594 18.6613 10.3359C18.6613 15.1359 14.677 19.0279 9.76301 19.0279C8.41787 19.0332 7.0888 18.7355 5.87445 18.1567C4.6601 17.578 3.59165 16.7332 2.74839 15.6849C2.63713 15.5476 2.4768 15.4591 2.30137 15.438C2.12594 15.4169 1.94919 15.4649 1.80857 15.5719C1.73961 15.6238 1.68178 15.689 1.63851 15.7637C1.59524 15.8383 1.56742 15.9209 1.55669 16.0066C1.54597 16.0922 1.55256 16.1791 1.57608 16.2622C1.59959 16.3452 1.63956 16.4227 1.6936 16.4899C3.62122 18.8999 6.57164 20.3359 9.76201 20.3359C15.4179 20.3359 20 15.8589 20 10.3359C20 4.81294 15.4169 0.335938 9.76201 0.335938ZM2.90536 7.49594L0.199888 10.2029C-0.0620613 10.4639 -0.0670586 10.8829 0.187891 11.1389L2.83137 13.7819C2.89335 13.843 2.96678 13.8911 3.04744 13.9237C3.12809 13.9562 3.21439 13.9725 3.30136 13.9716C3.38833 13.9706 3.47425 13.9525 3.5542 13.9183C3.63414 13.884 3.70653 13.8343 3.76719 13.7719C3.82973 13.7113 3.87966 13.6389 3.91409 13.5589C3.94852 13.4789 3.96677 13.3928 3.96779 13.3057C3.96882 13.2186 3.95259 13.1322 3.92005 13.0514C3.8875 12.9706 3.83929 12.897 3.77818 12.8349L2.23149 11.2879H12.5395C12.6265 11.2893 12.7128 11.2734 12.7937 11.2412C12.8745 11.209 12.9482 11.1611 13.0104 11.1003C13.0727 11.0395 13.1223 10.967 13.1564 10.887C13.1906 10.807 13.2086 10.721 13.2093 10.6339C13.2093 10.2719 12.9094 9.97894 12.5395 9.97894H2.27248L3.83018 8.42094C3.89257 8.36033 3.94237 8.28799 3.97671 8.20806C4.01105 8.12814 4.02926 8.04221 4.03028 7.95522C4.0313 7.86824 4.01512 7.78191 3.98267 7.7012C3.95021 7.62049 3.90212 7.54699 3.84117 7.48494C3.77913 7.42397 3.70565 7.37588 3.62495 7.34342C3.54426 7.31096 3.45795 7.29477 3.37098 7.2958C3.28401 7.29682 3.1981 7.31503 3.11819 7.34937C3.03828 7.38372 2.96595 7.43353 2.90536 7.49594Z" fill="#FF4C4C"/>
</svg>
