<svg width="18" height="11" viewBox="0 0 18 11" fill="none" xmlns="http://www.w3.org/2000/svg">
<path fill-rule="evenodd" clip-rule="evenodd" d="M12.4929 0.434789C12.6427 0.565563 12.7344 0.75048 12.7479 0.948881C12.7614 1.14728 12.6956 1.34292 12.5649 1.49279L4.70788 10.4928C4.63749 10.5734 4.55064 10.6381 4.45319 10.6824C4.35573 10.7266 4.24993 10.7496 4.14288 10.7496C4.03584 10.7496 3.93003 10.7266 3.83258 10.6824C3.73512 10.6381 3.64828 10.5734 3.57788 10.4928L0.434883 6.89279C0.308808 6.74232 0.246755 6.54841 0.262046 6.3527C0.277337 6.15698 0.368753 5.97507 0.516668 5.846C0.664584 5.71694 0.857208 5.65101 1.05319 5.66237C1.24917 5.67374 1.43288 5.76149 1.56488 5.90679L4.14288 8.85979L11.4349 0.506789C11.5657 0.356977 11.7506 0.265234 11.949 0.251732C12.1474 0.23823 12.343 0.304075 12.4929 0.434789ZM17.5179 0.519789C17.8179 0.804789 17.8289 1.27979 17.5429 1.57979L8.97188 10.5798C8.89702 10.6584 8.80599 10.7198 8.70506 10.7598C8.60414 10.7998 8.49574 10.8175 8.38734 10.8115C8.27894 10.8055 8.17314 10.776 8.07724 10.7251C7.98134 10.6743 7.89763 10.6032 7.83188 10.5168L7.40288 9.95379C7.29051 9.80729 7.23612 9.62449 7.25013 9.44039C7.26414 9.25629 7.34556 9.08382 7.47882 8.95602C7.61207 8.82822 7.78778 8.75406 7.97231 8.74774C8.15683 8.74143 8.3372 8.8034 8.47888 8.92179L16.4569 0.544789C16.594 0.400835 16.7827 0.317231 16.9815 0.312356C17.1803 0.30748 17.3728 0.381732 17.5169 0.518789" fill="#0F0F0F"/>
</svg>
