<svg width="24" height="18" viewBox="0 0 24 18" fill="none" xmlns="http://www.w3.org/2000/svg">
<g clip-path="url(#clip0_2427_29974)">
<path d="M4.36323 17.9107V16.7193C4.36323 16.2625 4.07504 15.9648 3.58107 15.9648C3.33414 15.9648 3.06657 16.0442 2.88132 16.3023C2.73732 16.0839 2.53154 15.9648 2.22282 15.9648C2.01695 15.9648 1.81126 16.0243 1.64654 16.2427V16.0045H1.21436V17.9107H1.64654V16.8582C1.64654 16.5208 1.83179 16.3618 2.11998 16.3618C2.40798 16.3618 2.55217 16.5406 2.55217 16.8582V17.9107H2.98436V16.8582C2.98436 16.5208 3.19004 16.3618 3.45761 16.3618C3.74579 16.3618 3.88979 16.5406 3.88979 16.8582V17.9107H4.36323ZM10.7636 16.0045H10.064V15.4286H9.63179V16.0045H9.24076V16.3816H9.6317V17.2554C9.6317 17.6923 9.81695 17.9504 10.3109 17.9504C10.4962 17.9504 10.7019 17.8908 10.846 17.8114L10.7225 17.454C10.599 17.5334 10.455 17.5533 10.3521 17.5533C10.1463 17.5533 10.064 17.4342 10.064 17.2355V16.3816H10.7636V16.0045ZM14.427 15.9647C14.1801 15.9647 14.0154 16.0839 13.9125 16.2427V16.0045H13.4803V17.9107H13.9125V16.8384C13.9125 16.5208 14.0565 16.342 14.3241 16.342C14.4064 16.342 14.5093 16.3619 14.5916 16.3817L14.7151 15.9847C14.6328 15.9648 14.5093 15.9648 14.427 15.9648M8.89089 16.1634C8.68501 16.0244 8.39692 15.9648 8.0882 15.9648C7.59432 15.9648 7.26507 16.2031 7.26507 16.5804C7.26507 16.8981 7.51201 17.0768 7.9442 17.1364L8.14998 17.1563C8.37639 17.1959 8.49986 17.2555 8.49986 17.3548C8.49986 17.4938 8.33523 17.5931 8.04704 17.5931C7.75886 17.5931 7.53254 17.4938 7.38845 17.3945L7.18267 17.7122C7.40907 17.871 7.71779 17.9505 8.02642 17.9505C8.6027 17.9505 8.93204 17.6924 8.93204 17.3349C8.93204 16.9974 8.66448 16.8186 8.25282 16.7591L8.04704 16.7392C7.86179 16.7193 7.71779 16.6797 7.71779 16.5606C7.71779 16.4215 7.86179 16.3421 8.0882 16.3421C8.33523 16.3421 8.58217 16.4413 8.70564 16.501L8.89089 16.1634ZM20.3748 15.9648C20.1278 15.9648 19.9631 16.084 19.8602 16.2428V16.0046H19.428V17.9107H19.8602V16.8385C19.8602 16.5209 20.0043 16.3421 20.2718 16.3421C20.3542 16.3421 20.4571 16.362 20.5394 16.3818L20.6629 15.9847C20.5806 15.9648 20.4571 15.9648 20.3748 15.9648ZM14.8592 16.9576C14.8592 17.5335 15.2708 17.9505 15.9088 17.9505C16.1969 17.9505 16.4027 17.8909 16.6085 17.7321L16.4027 17.3945C16.2381 17.5137 16.0735 17.5732 15.8882 17.5732C15.5383 17.5732 15.2914 17.3349 15.2914 16.9576C15.2914 16.6003 15.5383 16.3619 15.8882 16.3421C16.0735 16.3421 16.2381 16.4016 16.4027 16.5209L16.6085 16.1833C16.4027 16.0244 16.1969 15.9648 15.9088 15.9648C15.2708 15.9648 14.8592 16.3818 14.8592 16.9576ZM18.8518 16.9576V16.0046H18.4196V16.2428C18.2755 16.0642 18.0698 15.9648 17.8022 15.9648C17.2465 15.9648 16.8144 16.3818 16.8144 16.9576C16.8144 17.5335 17.2465 17.9505 17.8022 17.9505C18.0903 17.9505 18.2962 17.8512 18.4196 17.6725V17.9107H18.8518V16.9576ZM17.2671 16.9576C17.2671 16.6201 17.4935 16.3421 17.8639 16.3421C18.2138 16.3421 18.4608 16.6003 18.4608 16.9576C18.4608 17.2952 18.2138 17.5732 17.8639 17.5732C17.4935 17.5533 17.2671 17.2952 17.2671 16.9576ZM12.1014 15.9648C11.5252 15.9648 11.1135 16.3619 11.1135 16.9576C11.1135 17.5534 11.5251 17.9505 12.122 17.9505C12.4101 17.9505 12.6983 17.871 12.9247 17.6924L12.7188 17.3945C12.5542 17.5137 12.3484 17.5931 12.1426 17.5931C11.875 17.5931 11.6075 17.474 11.5457 17.1363H13.007V16.9775C13.0276 16.3619 12.6572 15.9648 12.1014 15.9648ZM12.1014 16.3222C12.3688 16.3222 12.5542 16.4811 12.5952 16.779H11.5662C11.6074 16.5209 11.7926 16.3222 12.1014 16.3222ZM22.8237 16.9576V15.25H22.3915V16.2428C22.2474 16.0642 22.0417 15.9648 21.7741 15.9648C21.2184 15.9648 20.7863 16.3818 20.7863 16.9576C20.7863 17.5335 21.2184 17.9505 21.7741 17.9505C22.0623 17.9505 22.2681 17.8512 22.3915 17.6725V17.9107H22.8237V16.9576ZM21.2391 16.9576C21.2391 16.6201 21.4654 16.3421 21.8359 16.3421C22.1858 16.3421 22.4327 16.6003 22.4327 16.9576C22.4327 17.2952 22.1858 17.5732 21.8359 17.5732C21.4654 17.5533 21.2391 17.2952 21.2391 16.9576ZM6.79154 16.9576V16.0046H6.35936V16.2428C6.21526 16.0642 6.00948 15.9648 5.74192 15.9648C5.18626 15.9648 4.75407 16.3818 4.75407 16.9576C4.75407 17.5335 5.18626 17.9505 5.74192 17.9505C6.03011 17.9505 6.23589 17.8512 6.35936 17.6725V17.9107H6.79154V16.9576ZM5.18626 16.9576C5.18626 16.6201 5.41267 16.3421 5.78307 16.3421C6.13295 16.3421 6.37998 16.6003 6.37998 16.9576C6.37998 17.2952 6.13295 17.5732 5.78307 17.5732C5.41267 17.5533 5.18626 17.2952 5.18626 16.9576Z" fill="black"/>
<path d="M8.74658 1.53125H15.2294V12.77H8.74658V1.53125Z" fill="#FF5F00"/>
<path d="M9.15834 7.14835C9.15834 4.86488 10.2697 2.83948 11.9778 1.52891C10.7225 0.575819 9.13781 0 7.40906 0C3.31341 0 0 3.19685 0 7.14835C0 11.0998 3.31341 14.2967 7.40897 14.2967C9.13772 14.2967 10.7224 13.7209 11.9778 12.7677C10.2697 11.477 9.15834 9.43182 9.15834 7.14835Z" fill="#EB001B"/>
<path d="M23.9764 7.14835C23.9764 11.0998 20.663 14.2967 16.5674 14.2967C14.8386 14.2967 13.254 13.7209 11.9985 12.7677C13.7273 11.4572 14.8181 9.43182 14.8181 7.14835C14.8181 4.86488 13.7067 2.83948 11.9985 1.52891C13.2539 0.575819 14.8386 0 16.5674 0C20.663 0 23.9764 3.21675 23.9764 7.14835Z" fill="#F79E1B"/>
</g>
<defs>
<clipPath id="clip0_2427_29974">
<rect width="24" height="18" fill="white"/>
</clipPath>
</defs>
</svg>
