<svg width="45" height="47" viewBox="0 0 45 47" fill="none" xmlns="http://www.w3.org/2000/svg">
<path d="M22.6128 46.91C34.8254 46.91 44.7257 36.4088 44.7257 23.455C44.7257 10.5012 34.8254 0 22.6128 0C10.4002 0 0.499985 10.5012 0.499985 23.455C0.499985 36.4088 10.4002 46.91 22.6128 46.91Z" fill="url(#paint0_linear_486_4216)"/>
<path d="M31.374 21.7987L19.3962 14.469C18.8434 14.0781 18.1063 14.0781 17.5534 14.469C17.0006 14.8599 16.6321 15.4463 16.6321 16.1304V30.692C16.6321 31.3761 17.0006 32.0602 17.5534 32.3534C17.8299 32.5488 18.1984 32.6466 18.4748 32.6466C18.7512 32.6466 19.1198 32.5488 19.3962 32.3534L31.2818 25.0237C31.8347 24.6328 32.2032 24.0464 32.2032 23.3623C32.2032 22.6782 31.9268 22.0919 31.374 21.7987Z" fill="white" fill-opacity="0.87"/>
<defs>
<linearGradient id="paint0_linear_486_4216" x1="-5.97263" y1="-8.65919" x2="46.3008" y2="43.4961" gradientUnits="userSpaceOnUse">
<stop offset="0.2" stop-color="#0A4834" stop-opacity="0.7"/>
<stop offset="0.536968" stop-color="#05543C" stop-opacity="0.625843"/>
<stop offset="0.920029" stop-color="#0F0F0F"/>
</linearGradient>
</defs>
</svg>
