<svg width="24" height="24" viewBox="0 0 24 24" fill="none" xmlns="http://www.w3.org/2000/svg">
<path d="M19.25 2.75H4.75C4.21957 2.75 3.71086 2.96071 3.33579 3.33579C2.96071 3.71086 2.75 4.21957 2.75 4.75V19.25C2.75 19.7804 2.96071 20.2891 3.33579 20.6642C3.71086 21.0393 4.21957 21.25 4.75 21.25H19.25C19.7804 21.25 20.2891 21.0393 20.6642 20.6642C21.0393 20.2891 21.25 19.7804 21.25 19.25V4.75C21.25 4.21957 21.0393 3.71086 20.6642 3.33579C20.2891 2.96071 19.7804 2.75 19.25 2.75Z" stroke="#F79E1B" stroke-width="0.5" stroke-linecap="round" stroke-linejoin="round"/>
<path d="M14.9793 7.1875V8.3025C14.9793 8.758 14.6093 9.1275 14.1538 9.1275C13.9258 9.1275 13.7188 9.0355 13.5698 8.886" stroke="#F79E1B" stroke-width="0.5" stroke-linecap="round" stroke-linejoin="round"/>
<path d="M14.9791 5.82812V7.19012C14.9791 7.64612 14.6091 8.01613 14.1536 8.01613C13.6976 8.01613 13.3276 7.64612 13.3276 7.19012V5.82812" stroke="#F79E1B" stroke-width="0.5" stroke-linecap="round" stroke-linejoin="round"/>
<path d="M9.021 6.65363C9.021 6.19763 9.391 5.82812 9.8465 5.82812C10.3025 5.82812 10.6725 6.19813 10.6725 6.65363V8.01562M9.021 5.82812V8.01613" stroke="#F79E1B" stroke-width="0.5" stroke-linecap="round" stroke-linejoin="round"/>
<path d="M10.6724 6.65363C10.6723 6.54524 10.6936 6.43791 10.735 6.33776C10.7765 6.23761 10.8372 6.1466 10.9138 6.06994C10.9904 5.99328 11.0814 5.93246 11.1815 5.89097C11.2817 5.84948 11.389 5.82812 11.4974 5.82813C11.9539 5.82813 12.3234 6.19813 12.3234 6.65363V8.01562" stroke="#F79E1B" stroke-width="0.5" stroke-linecap="round" stroke-linejoin="round"/>
<path d="M7.03662 15.6548V12.2812L8.72512 15.6583L10.4136 12.2868V15.6583M14.5826 15.6583V12.2812L16.8196 15.6583V12.2812M11.4096 12.2812H13.6466M12.5281 15.6583V12.2812" stroke="#F79E1B" stroke-width="0.5" stroke-linecap="round" stroke-linejoin="round"/>
<path d="M12 17.6684C16.1421 17.6684 19.5 16.013 19.5 13.9709C19.5 11.9289 16.1421 10.2734 12 10.2734C7.85786 10.2734 4.5 11.9289 4.5 13.9709C4.5 16.013 7.85786 17.6684 12 17.6684Z" stroke="#F79E1B" stroke-width="0.5" stroke-linecap="round" stroke-linejoin="round"/>
</svg>
