<svg width="28" height="28" viewBox="0 0 28 28" fill="none" xmlns="http://www.w3.org/2000/svg">
<path d="M22.2997 6.57401C26.4002 10.6745 26.4002 17.3227 22.2997 21.4233M19.2064 9.6677C21.5984 12.0597 21.5984 15.9378 19.2064 18.3298M7.875 9.62369L13.3813 4.11741C13.9325 3.56619 14.875 3.95659 14.875 4.73613V23.2613C14.875 24.0408 13.9325 24.4312 13.3813 23.88L7.875 18.3737H5.26056C4.23466 18.3737 3.27356 17.7828 3.0011 16.7937C2.75595 15.9038 2.625 14.9665 2.625 13.9987C2.625 13.0308 2.75595 12.0936 3.0011 11.2036C3.27356 10.2146 4.23466 9.62369 5.26056 9.62369H7.875Z" stroke="#EBE1CF" stroke-width="2" stroke-linecap="round" stroke-linejoin="round"/>
</svg>
