<svg width="46" height="46" viewBox="0 0 46 46" fill="none" xmlns="http://www.w3.org/2000/svg">
<path d="M45.46 43.46L5.54 3.54004L4 2.00004L2.54 0.540039L0 3.08004L8.78 11.86L13.2 21.18L10.5 26.08C10.18 26.64 10 27.3 10 28C10 30.2 11.8 32 14 32H28.92L31.68 34.76C30.9933 35.2524 30.4803 35.9498 30.2151 36.7521C29.9498 37.5544 29.9458 38.4201 30.2036 39.2248C30.4615 40.0295 30.9679 40.7317 31.6501 41.2304C32.3322 41.7291 33.155 41.9985 34 42C35.34 42 36.52 41.34 37.24 40.32L42.92 46L45.46 43.46ZM14.84 28C14.56 28 14.34 27.78 14.34 27.5L14.4 27.26L16.2 24H20.92L24.92 28H14.84ZM31.1 24C32.6 24 33.92 23.18 34.6 21.94L41.76 8.96004C41.925 8.65481 42.008 8.312 42.001 7.9651C41.9939 7.61819 41.8969 7.27906 41.7196 6.98082C41.5423 6.68258 41.2906 6.43543 40.9892 6.26353C40.6878 6.09163 40.347 6.00084 40 6.00004H13.08L31.1 24ZM14 34C11.8 34 10.02 35.8 10.02 38C10.02 40.2 11.8 42 14 42C16.2 42 18 40.2 18 38C18 35.8 16.2 34 14 34Z" fill="white" fill-opacity="0.1"/>
</svg>
