<svg width="83" height="86" viewBox="0 0 83 86" fill="none" xmlns="http://www.w3.org/2000/svg">
<path d="M10.8333 70.8333V62.5H19.1667V33.3333C19.1667 31.0417 19.4625 28.7847 20.0542 26.5625C20.6458 24.3403 21.5306 22.2222 22.7083 20.2083L28.9583 26.4583C28.4722 27.5695 28.1083 28.6986 27.8667 29.8458C27.625 30.9931 27.5028 32.1556 27.5 33.3333V62.5H53.3333L0 9.16668L5.83333 3.33334L82.5 80L76.6667 85.8333L61.4583 70.8333H10.8333ZM69.1667 54.7917L60.8333 46.4583V33.3333C60.8333 28.75 59.2014 24.8264 55.9375 21.5625C52.6736 18.2986 48.75 16.6667 44.1667 16.6667C42.3611 16.6667 40.625 16.9445 38.9583 17.5C37.2917 18.0556 35.7639 18.8889 34.375 20L28.3333 13.9583C29.7222 12.8472 31.2153 11.875 32.8125 11.0417C34.4097 10.2083 36.1111 9.58334 37.9167 9.16668V6.25001C37.9167 4.5139 38.5236 3.0389 39.7375 1.82501C40.9514 0.61112 42.4278 0.00278725 44.1667 9.4697e-06C45.9056 -0.00276831 47.3819 0.605565 48.5958 1.82501C49.8097 3.04445 50.4167 4.51945 50.4167 6.25001V9.16668C55.9722 10.5556 60.4861 13.4903 63.9583 17.9708C67.4306 22.4514 69.1667 27.5722 69.1667 33.3333V54.7917ZM44.1667 83.3333C41.875 83.3333 39.9139 82.5181 38.2833 80.8875C36.6528 79.257 35.8361 77.2945 35.8333 75H52.5C52.5 77.2917 51.6847 79.2542 50.0542 80.8875C48.4236 82.5209 46.4611 83.3361 44.1667 83.3333Z" fill="#333333"/>
</svg>
