<svg width="247" height="232" viewBox="0 0 247 232" fill="none" xmlns="http://www.w3.org/2000/svg">
<path d="M27.1665 204.83C20.4749 204.83 14.7484 202.449 9.9872 197.688C5.22598 192.927 2.84131 187.196 2.8332 180.496V34.4964C2.8332 27.8047 5.21787 22.0783 9.9872 17.3171C14.7565 12.5558 20.483 10.1712 27.1665 10.1631L100.167 83.1631H27.1665V180.496H197.5L221.833 204.83H27.1665ZM243.429 191.446L221.833 169.851V83.1631H134.842L61.8415 10.1631H82.829L102.904 50.0089C104.323 52.8478 106.351 55.0297 108.987 56.5546C111.623 58.0795 114.462 58.8378 117.504 58.8297C123.587 58.8297 128.203 56.295 131.35 51.2256C134.497 46.1561 134.647 40.8839 131.8 35.4089L119.329 10.1631H148.833L168.604 49.7047C170.023 52.5436 172.051 54.7742 174.687 56.3964C177.323 58.0186 180.162 58.8297 183.204 58.8297C189.287 58.8297 193.951 56.2423 197.196 51.0674C200.44 45.8925 200.643 40.5716 197.804 35.1047L185.333 10.1631H221.833C228.525 10.1631 234.255 12.5437 239.025 17.3049C243.794 22.0661 246.175 27.7966 246.167 34.4964V180.496C246.167 182.524 245.964 184.451 245.558 186.276C245.153 188.101 244.443 189.824 243.429 191.446ZM210.579 227.946L3.7457 21.4172C1.31237 18.9839 0.0957031 16.0963 0.0957031 12.7546C0.0957031 9.41278 1.31237 6.52117 3.7457 4.07973C6.17904 1.63828 9.07065 0.421617 12.4205 0.429728C15.7704 0.437839 18.658 1.6545 21.0832 4.07973L227.917 210.913C230.35 213.346 231.566 216.185 231.566 219.43C231.566 222.674 230.35 225.513 227.917 227.946C225.483 230.38 222.596 231.596 219.254 231.596C215.912 231.596 213.02 230.38 210.579 227.946Z" fill="#1F1F1F"/>
</svg>
