<svg width="74" height="70" viewBox="0 0 74 70" fill="none" xmlns="http://www.w3.org/2000/svg">
<path d="M8.49995 61.5016C6.5062 61.5016 4.80003 60.7923 3.38145 59.3737C1.96287 57.9551 1.25237 56.2477 1.24995 54.2516V10.7516C1.24995 8.75782 1.96045 7.05166 3.38145 5.63307C4.80245 4.21449 6.50862 3.50399 8.49995 3.50157L30.25 25.2516H8.49995V54.2516H59.25L66.4999 61.5016H8.49995ZM72.9343 57.5141L66.4999 51.0797V25.2516H40.5812L18.8312 3.50157H25.0843L31.0656 15.3734C31.4885 16.2193 32.0927 16.8694 32.8781 17.3237C33.6635 17.778 34.5093 18.004 35.4156 18.0016C37.2281 18.0016 38.6032 17.2464 39.5408 15.7359C40.4785 14.2255 40.5232 12.6547 39.6749 11.0234L35.9593 3.50157H44.75L50.6406 15.2828C51.0635 16.1287 51.6677 16.7932 52.4531 17.2766C53.2385 17.7599 54.0843 18.0016 54.9906 18.0016C56.8031 18.0016 58.1927 17.2307 59.1593 15.6888C60.126 14.147 60.1864 12.5617 59.3406 10.9328L55.625 3.50157H66.4999C68.4937 3.50157 70.2011 4.21087 71.6221 5.62945C73.0431 7.04803 73.7524 8.75541 73.7499 10.7516V54.2516C73.7499 54.8557 73.6895 55.4297 73.5687 55.9734C73.4479 56.5172 73.2364 57.0307 72.9343 57.5141ZM63.1468 68.3891L1.52183 6.8547C0.796826 6.1297 0.434326 5.26937 0.434326 4.2737C0.434326 3.27803 0.796826 2.41649 1.52183 1.68907C2.24683 0.961658 3.10837 0.599158 4.10645 0.601575C5.10453 0.603991 5.96487 0.966491 6.68745 1.68907L68.3124 63.3141C69.0374 64.0391 69.3999 64.8849 69.3999 65.8516C69.3999 66.8182 69.0374 67.6641 68.3124 68.3891C67.5874 69.1141 66.7271 69.4766 65.7314 69.4766C64.7358 69.4766 63.8742 69.1141 63.1468 68.3891Z" fill="#1F1F1F"/>
</svg>
