<svg width="26" height="27" viewBox="0 0 26 27" fill="none" xmlns="http://www.w3.org/2000/svg">
<path d="M16.8626 20.3726C19.3812 20.0725 21.856 19.4781 24.2361 18.6015C22.2212 16.369 21.1077 13.4674 21.1118 10.46V9.44605C21.1118 7.29468 20.2571 5.23142 18.7359 3.71017C17.2146 2.18892 15.1514 1.33429 13 1.33429C10.8486 1.33429 8.78537 2.18892 7.26412 3.71017C5.74287 5.23142 4.88824 7.29468 4.88824 9.44605V10.46C4.89193 13.4676 3.77792 16.3692 1.76251 18.6015C4.10545 19.4668 6.57548 20.0684 9.13745 20.3726M16.8626 20.3726C14.2965 20.6764 11.7035 20.6764 9.13745 20.3726M16.8626 20.3726C17.0574 20.9808 17.1058 21.6264 17.0039 22.2569C16.9021 22.8873 16.6528 23.4848 16.2763 24.0007C15.8999 24.5166 15.4069 24.9363 14.8376 25.2256C14.2682 25.515 13.6386 25.6658 13 25.6658C12.3614 25.6658 11.7318 25.515 11.1624 25.2256C10.5931 24.9363 10.1001 24.5166 9.72369 24.0007C9.34723 23.4848 9.09792 22.8873 8.99605 22.2569C8.89418 21.6264 8.94263 20.9808 9.13745 20.3726M1 7.41811C1.38128 5.15356 2.39771 3.04381 3.93105 1.33429M22.069 1.33429C23.6023 3.04381 24.6187 5.15356 25 7.41811" stroke="white" stroke-width="1.5" stroke-linecap="round" stroke-linejoin="round"/>
</svg>
