<svg width="25" height="24" viewBox="0 0 25 24" fill="none" xmlns="http://www.w3.org/2000/svg">
<path d="M4.27686 19V17H6.27686V10C6.27686 8.61667 6.69352 7.38767 7.52686 6.313C8.36019 5.23834 9.44352 4.534 10.7769 4.2V3.5C10.7769 3.08334 10.9229 2.72934 11.2149 2.438C11.5069 2.14667 11.8609 2.00067 12.2769 2C12.6929 1.99934 13.0472 2.14534 13.3399 2.438C13.6325 2.73067 13.7782 3.08467 13.7769 3.5V4.2C15.1102 4.53334 16.1935 5.23767 17.0269 6.313C17.8602 7.38834 18.2769 8.61734 18.2769 10V17H20.2769V19H4.27686ZM12.2769 22C11.7269 22 11.2562 21.8043 10.8649 21.413C10.4735 21.0217 10.2775 20.5507 10.2769 20H14.2769C14.2769 20.55 14.0812 21.021 13.6899 21.413C13.2985 21.805 12.8275 22.0007 12.2769 22Z" fill="white"/>
</svg>
