<svg width="40" height="42" viewBox="0 0 40 42" fill="none" xmlns="http://www.w3.org/2000/svg">
<path d="M37.94 9.40291L21.44 0.374789C20.9991 0.131194 20.5037 0.00341797 20 0.00341797C19.4963 0.00341797 19.0009 0.131194 18.56 0.374789L2.06 9.40666C1.58879 9.66449 1.19544 10.0441 0.921035 10.5058C0.646625 10.9676 0.501219 11.4945 0.5 12.0317V29.9642C0.501219 30.5013 0.646625 31.0282 0.921035 31.49C1.19544 31.9517 1.58879 32.3313 2.06 32.5892L18.56 41.621C19.0009 41.8646 19.4963 41.9924 20 41.9924C20.5037 41.9924 20.9991 41.8646 21.44 41.621L37.94 32.5892C38.4112 32.3313 38.8046 31.9517 39.079 31.49C39.3534 31.0282 39.4988 30.5013 39.5 29.9642V12.0335C39.4998 11.4955 39.3549 10.9673 39.0804 10.5045C38.8059 10.0417 38.412 9.6612 37.94 9.40291ZM20 2.99979L35.0656 11.2498L29.4819 14.3042L14.4163 6.05416L20 2.99979ZM20 19.4998L4.93438 11.2498L11.2925 7.76791L26.3581 16.0179L20 19.4998ZM36.5 29.9717L21.5 38.1823V22.0929L27.5 18.8098V25.4998C27.5 25.8976 27.658 26.2791 27.9393 26.5605C28.2206 26.8418 28.6022 26.9998 29 26.9998C29.3978 26.9998 29.7794 26.8418 30.0607 26.5605C30.342 26.2791 30.5 25.8976 30.5 25.4998V17.1673L36.5 13.8842V29.9642V29.9717Z" fill="#C4BD47"/>
</svg>
