<svg width="160" height="161" viewBox="0 0 160 161" fill="none" xmlns="http://www.w3.org/2000/svg">
<path d="M65.8606 101.318L80.0006 87.1713M80.0006 87.1713L94.1406 73.0379M80.0006 87.1713L65.8606 73.0312M80.0006 87.1713L94.1406 101.311" stroke="#FF4C4C" stroke-width="5.5625" stroke-linecap="round"/>
<path d="M136.666 30.5026L109.999 13.8359M23.3327 30.5026L49.9994 13.8359" stroke="#FF4C4C" stroke-width="5.5625" stroke-linecap="round" stroke-linejoin="round"/>
<path d="M110 35.1984C97.3935 27.9223 82.5717 25.4771 68.2959 28.3183C54.0201 31.1596 41.264 39.0934 32.4039 50.6419C23.5437 62.1904 19.1838 76.566 20.1363 91.0905C21.0888 105.615 27.2888 119.298 37.5813 129.591C47.8737 139.883 61.5568 146.083 76.0813 147.036C90.6059 147.988 104.981 143.628 116.53 134.768C128.078 125.908 136.012 113.152 138.854 98.876C141.695 84.6002 139.25 69.7784 131.974 57.1717" stroke="#FF4C4C" stroke-width="5.5625" stroke-linecap="round"/>
</svg>
