<svg width="24" height="24" viewBox="0 0 24 24" fill="none" xmlns="http://www.w3.org/2000/svg">
<path d="M2 6.25C2 5.38805 2.34241 4.5614 2.9519 3.9519C3.5614 3.34241 4.38805 3 5.25 3H18.75C19.1768 3 19.5994 3.08406 19.9937 3.24739C20.388 3.41072 20.7463 3.65011 21.0481 3.9519C21.3499 4.25369 21.5893 4.61197 21.7526 5.00628C21.9159 5.40059 22 5.8232 22 6.25V12H20.5V6.25C20.5 5.78587 20.3156 5.34075 19.9874 5.01256C19.6592 4.68437 19.2141 4.5 18.75 4.5H5.25C4.78587 4.5 4.34075 4.68437 4.01256 5.01256C3.68437 5.34075 3.5 5.78587 3.5 6.25V15.75C3.5 16.716 4.284 17.5 5.25 17.5H11V19H5.25C4.38805 19 3.5614 18.6576 2.9519 18.0481C2.34241 17.4386 2 16.612 2 15.75V6.25ZM14 13C13.4696 13 12.9609 13.2107 12.5858 13.5858C12.2107 13.9609 12 14.4696 12 15V20C12 20.5304 12.2107 21.0391 12.5858 21.4142C12.9609 21.7893 13.4696 22 14 22H21C21.5304 22 22.0391 21.7893 22.4142 21.4142C22.7893 21.0391 23 20.5304 23 20V15C23 14.4696 22.7893 13.9609 22.4142 13.5858C22.0391 13.2107 21.5304 13 21 13H14Z" fill="#EBE1CF"/>
</svg>
