<svg viewBox="0 0 38 38" fill="none" xmlns="http://www.w3.org/2000/svg">
<path d="M6.58334 0.75H31.5C33.025 0.75 34.4875 1.3558 35.5659 2.43414C36.6442 3.51247 37.25 4.975 37.25 6.5V31.4167C37.25 32.9417 36.6442 34.4042 35.5659 35.4825C34.4875 36.5609 33.025 37.1667 31.5 37.1667H6.58334C5.05835 37.1667 3.59581 36.5609 2.51748 35.4825C1.43915 34.4042 0.833344 32.9417 0.833344 31.4167V6.5C0.833344 4.975 1.43915 3.51247 2.51748 2.43414C3.59581 1.3558 5.05835 0.75 6.58334 0.75ZM6.58334 2.66667C5.56668 2.66667 4.59166 3.07053 3.87277 3.78942C3.15388 4.50831 2.75001 5.48334 2.75001 6.5V28.7142L10.9725 20.4725L15.7642 25.2642L25.3475 15.6808L35.3333 25.6667V6.5C35.3333 5.48334 34.9295 4.50831 34.2106 3.78942C33.4917 3.07053 32.5167 2.66667 31.5 2.66667H6.58334ZM15.7642 27.9858L10.9725 23.1942L2.75001 31.4167C2.75001 32.4333 3.15388 33.4083 3.87277 34.1272C4.59166 34.8461 5.56668 35.25 6.58334 35.25H31.5C32.5167 35.25 33.4917 34.8461 34.2106 34.1272C34.9295 33.4083 35.3333 32.4333 35.3333 31.4167V28.3692L25.3475 18.4025L15.7642 27.9858ZM11.375 6.5C12.6458 6.5 13.8646 7.00483 14.7632 7.90345C15.6618 8.80206 16.1667 10.0208 16.1667 11.2917C16.1667 12.5625 15.6618 13.7813 14.7632 14.6799C13.8646 15.5785 12.6458 16.0833 11.375 16.0833C10.1042 16.0833 8.8854 15.5785 7.98679 14.6799C7.08818 13.7813 6.58334 12.5625 6.58334 11.2917C6.58334 10.0208 7.08818 8.80206 7.98679 7.90345C8.8854 7.00483 10.1042 6.5 11.375 6.5ZM11.375 8.41667C10.6125 8.41667 9.88124 8.71957 9.34208 9.25873C8.80291 9.7979 8.50001 10.5292 8.50001 11.2917C8.50001 12.0542 8.80291 12.7854 9.34208 13.3246C9.88124 13.8638 10.6125 14.1667 11.375 14.1667C12.1375 14.1667 12.8688 13.8638 13.4079 13.3246C13.9471 12.7854 14.25 12.0542 14.25 11.2917C14.25 10.5292 13.9471 9.7979 13.4079 9.25873C12.8688 8.71957 12.1375 8.41667 11.375 8.41667Z" fill="url(#paint0_linear_2287_4121)"/>
<defs>
<linearGradient id="paint0_linear_2287_4121" x1="-4.49639" y1="-5.97221" x2="36.019" y2="36.9052" gradientUnits="userSpaceOnUse">
<stop offset="0.2" stop-color="#619267"/>
<stop offset="0.920029" stop-color="#04271C"/>
</linearGradient>
</defs>
</svg>
