<svg width="20" height="20" viewBox="0 0 20 20" fill="none" xmlns="http://www.w3.org/2000/svg">
<path d="M9.48073 1.49883C9.67288 1.03685 10.3273 1.03685 10.5195 1.49883L12.6454 6.61028C12.7264 6.80504 12.9096 6.93811 13.1199 6.95497L18.6381 7.39736C19.1369 7.43735 19.3391 8.05976 18.9591 8.38526L14.7548 11.9867C14.5946 12.1239 14.5246 12.3392 14.5736 12.5444L15.858 17.9293C15.9741 18.416 15.4447 18.8007 15.0177 18.5398L10.2933 15.6542C10.1133 15.5443 9.88691 15.5443 9.7069 15.6542L4.98251 18.5398C4.55551 18.8007 4.02606 18.416 4.14215 17.9293L5.42664 12.5444C5.47558 12.3392 5.40562 12.1239 5.24543 11.9867L1.04111 8.38526C0.661119 8.05976 0.863352 7.43735 1.36209 7.39736L6.88034 6.95497C7.0906 6.93811 7.27375 6.80504 7.35476 6.61028L9.48073 1.49883Z" stroke="#999999" stroke-width="1.5" stroke-linecap="round" stroke-linejoin="round"/>
</svg>
