<svg width="19" height="19" viewBox="0 0 19 19" fill="none" xmlns="http://www.w3.org/2000/svg">
<path d="M2.75 10.6797C2.75 12.0147 3.14588 13.3198 3.88758 14.4298C4.62928 15.5398 5.68349 16.405 6.91689 16.9159C8.15029 17.4268 9.50749 17.5604 10.8169 17.3C12.1262 17.0395 13.329 16.3967 14.273 15.4527C15.217 14.5087 15.8598 13.3059 16.1203 11.9965C16.3808 10.6872 16.2471 9.32998 15.7362 8.09658C15.2253 6.86317 14.3601 5.80897 13.2501 5.06727C12.1401 4.32557 10.835 3.92969 9.5 3.92969H7.25V1.11719L3.875 4.49219L7.25 7.86719V5.05469H9.5C10.6125 5.05469 11.7001 5.38459 12.6251 6.00267C13.5501 6.62075 14.2711 7.49926 14.6968 8.52709C15.1226 9.55493 15.234 10.6859 15.0169 11.7771C14.7999 12.8682 14.2641 13.8705 13.4775 14.6572C12.6908 15.4438 11.6885 15.9796 10.5974 16.1966C9.50624 16.4136 8.37524 16.3023 7.34741 15.8765C6.31957 15.4508 5.44107 14.7298 4.82298 13.8048C4.2049 12.8797 3.875 11.7922 3.875 10.6797H2.75Z" fill="#EBE1CF"/>
<path d="M11.5419 13.0015C11.2934 13.0075 11.0468 12.9555 10.8219 12.8496C10.6222 12.7482 10.4503 12.5995 10.3213 12.4165C10.1802 12.2027 10.0809 11.9641 10.0288 11.7133C9.96236 11.4028 9.93029 11.0859 9.93315 10.7683C9.9316 10.4508 9.96366 10.1341 10.0288 9.82333C10.0822 9.57296 10.1814 9.3346 10.3213 9.12021C10.4503 8.93715 10.6222 8.78845 10.8219 8.68708C11.0468 8.58112 11.2934 8.52911 11.5419 8.53521C11.7756 8.51743 12.01 8.55979 12.2226 8.65825C12.4353 8.75672 12.6193 8.90801 12.7569 9.09771C13.047 9.59657 13.1839 10.1697 13.1507 10.7458C13.1839 11.3219 13.047 11.8951 12.7569 12.394C12.6245 12.5919 12.4429 12.752 12.2298 12.8586C12.0168 12.9651 11.7797 13.0143 11.5419 13.0015ZM11.5419 12.3152C11.6553 12.322 11.7683 12.2965 11.8678 12.2418C11.9674 12.187 12.0494 12.1052 12.1044 12.0058C12.2384 11.7426 12.3097 11.4519 12.3125 11.1565V10.3802C12.3249 10.0901 12.269 9.80107 12.1494 9.53646C12.0865 9.44012 12.0006 9.36099 11.8995 9.30621C11.7983 9.25144 11.6851 9.22276 11.57 9.22276C11.455 9.22276 11.3418 9.25144 11.2406 9.30621C11.1394 9.36099 11.0535 9.44012 10.9907 9.53646C10.871 9.80107 10.8152 10.0901 10.8275 10.3802V11.1565C10.8163 11.4483 10.8721 11.7389 10.9907 12.0058C11.0443 12.1039 11.1244 12.1849 11.2219 12.2396C11.3194 12.2943 11.4303 12.3205 11.5419 12.3152ZM6.4794 12.9283V12.2646H7.6044V9.34521L6.55815 9.90771L6.24878 9.31146L7.55378 8.58021H8.37503V12.2365H9.37628V12.9283H6.4794Z" fill="#EBE1CF"/>
</svg>
