<svg width="24" height="25" viewBox="0 0 24 25" fill="none" xmlns="http://www.w3.org/2000/svg">
<path d="M21.25 12.5057H8.895M4.534 12.5057H2.75M4.534 12.5057C4.534 11.9276 4.76368 11.3731 5.17251 10.9643C5.58134 10.5554 6.13583 10.3257 6.714 10.3257C7.29217 10.3257 7.84666 10.5554 8.25549 10.9643C8.66432 11.3731 8.894 11.9276 8.894 12.5057C8.894 13.0839 8.66432 13.6384 8.25549 14.0472C7.84666 14.4561 7.29217 14.6858 6.714 14.6858C6.13583 14.6858 5.58134 14.4561 5.17251 14.0472C4.76368 13.6384 4.534 13.0839 4.534 12.5057ZM21.25 19.1128H15.502M15.502 19.1128C15.502 19.6911 15.2718 20.2462 14.8628 20.6551C14.4539 21.064 13.8993 21.2938 13.321 21.2938C12.7428 21.2938 12.1883 21.0631 11.7795 20.6542C11.3707 20.2454 11.141 19.6909 11.141 19.1128M15.502 19.1128C15.502 18.5344 15.2718 17.9803 14.8628 17.5714C14.4539 17.1625 13.8993 16.9327 13.321 16.9327C12.7428 16.9327 12.1883 17.1624 11.7795 17.5713C11.3707 17.9801 11.141 18.5346 11.141 19.1128M11.141 19.1128H2.75M21.25 5.89875H18.145M13.784 5.89875H2.75M13.784 5.89875C13.784 5.32058 14.0137 4.76609 14.4225 4.35726C14.8313 3.94843 15.3858 3.71875 15.964 3.71875C16.2503 3.71875 16.5338 3.77514 16.7983 3.88469C17.0627 3.99425 17.3031 4.15483 17.5055 4.35726C17.7079 4.55969 17.8685 4.80001 17.9781 5.0645C18.0876 5.32899 18.144 5.61247 18.144 5.89875C18.144 6.18503 18.0876 6.46851 17.9781 6.733C17.8685 6.99749 17.7079 7.23781 17.5055 7.44024C17.3031 7.64267 17.0627 7.80325 16.7983 7.91281C16.5338 8.02236 16.2503 8.07875 15.964 8.07875C15.3858 8.07875 14.8313 7.84907 14.4225 7.44024C14.0137 7.03141 13.784 6.47692 13.784 5.89875Z" stroke="url(#paint0_linear_2345_2020)" stroke-width="1.5" stroke-miterlimit="10" stroke-linecap="round"/>
<defs>
<linearGradient id="paint0_linear_2345_2020" x1="0.0424485" y1="0.474554" x2="19.5133" y2="22.1651" gradientUnits="userSpaceOnUse">
<stop offset="0.2" stop-color="#5B7F60"/>
<stop offset="0.536968" stop-color="#3E6042"/>
<stop offset="0.920029" stop-color="#04271C"/>
</linearGradient>
</defs>
</svg>
