<svg width="20" height="20" viewBox="0 0 20 20" fill="none" xmlns="http://www.w3.org/2000/svg">
<path d="M11.3968 5.8009C11.7378 5.7469 11.9704 5.42675 11.9164 5.08582C11.8624 4.7449 11.5422 4.51229 11.2013 4.56629C10.8604 4.62029 10.6278 4.94044 10.6818 5.28137C10.7358 5.6223 11.0559 5.8549 11.3968 5.8009Z" fill="#619267"/>
<path d="M5.02881 5.54026C4.86504 5.5662 4.71828 5.65613 4.62082 5.79028C4.52336 5.92443 4.48318 6.0918 4.50912 6.25557C4.53507 6.41934 4.625 6.5661 4.75915 6.66356C4.8933 6.76102 5.06066 6.8012 5.22444 6.77526L5.02881 5.54026ZM7.69319 6.38401C7.85696 6.35815 8.00375 6.26829 8.10127 6.1342C8.19879 6.00011 8.23905 5.83278 8.21319 5.66901C8.18733 5.50523 8.09747 5.35844 7.96338 5.26092C7.82929 5.16341 7.66196 5.12315 7.49819 5.14901L7.69319 6.38401ZM5.61506 9.24401C5.45129 9.26995 5.30453 9.35988 5.20707 9.49403C5.10961 9.62818 5.06943 9.79555 5.09537 9.95932C5.12132 10.1231 5.21125 10.2698 5.3454 10.3673C5.47955 10.4648 5.64691 10.5049 5.81069 10.479L5.61506 9.24401ZM11.9838 9.50088C12.0661 9.48942 12.1452 9.46167 12.2167 9.41927C12.2881 9.37686 12.3503 9.32064 12.3998 9.2539C12.4492 9.18716 12.4849 9.11123 12.5046 9.03055C12.5244 8.94987 12.5279 8.86607 12.5149 8.78403C12.5019 8.70199 12.4726 8.62337 12.4289 8.55275C12.3852 8.48214 12.3278 8.42095 12.2601 8.37277C12.1925 8.32458 12.1159 8.29037 12.0349 8.27212C11.9538 8.25388 11.87 8.25197 11.7882 8.26651L11.9838 9.50088ZM6.00694 11.714C5.84316 11.7399 5.69641 11.8299 5.59895 11.964C5.50149 12.0982 5.46131 12.2655 5.48725 12.4293C5.51319 12.5931 5.60313 12.7398 5.73727 12.8373C5.87142 12.9348 6.03879 12.9749 6.20256 12.949L6.00694 11.714ZM11.1413 12.1665C11.2236 12.155 11.3027 12.1273 11.3742 12.0849C11.4456 12.0425 11.5078 11.9863 11.5573 11.9195C11.6067 11.8528 11.6424 11.7769 11.6621 11.6962C11.6819 11.6155 11.6854 11.5317 11.6724 11.4497C11.6594 11.3676 11.6301 11.289 11.5864 11.2184C11.5427 11.1478 11.4853 11.0866 11.4176 11.0384C11.35 10.9902 11.2734 10.956 11.1924 10.9377C11.1113 10.9195 11.0275 10.9176 10.9457 10.9321L11.1413 12.1665ZM16.2507 6.25151V16.8765H17.5007V6.25151H16.2507ZM15.6257 17.5015H6.87569V18.7515H15.6257V17.5015ZM6.87569 17.5015C6.70993 17.5015 6.55095 17.4357 6.43374 17.3184C6.31653 17.2012 6.25069 17.0423 6.25069 16.8765H5.00069C5.00069 17.3738 5.19823 17.8507 5.54986 18.2023C5.90149 18.554 6.37841 18.7515 6.87569 18.7515V17.5015ZM16.2507 16.8765C16.2507 17.0423 16.1848 17.2012 16.0676 17.3184C15.9504 17.4357 15.7914 17.5015 15.6257 17.5015V18.7515C16.123 18.7515 16.5999 18.554 16.9515 18.2023C17.3031 17.8507 17.5007 17.3738 17.5007 16.8765H16.2507ZM15.6257 5.62651C15.7914 5.62651 15.9504 5.69235 16.0676 5.80956C16.1848 5.92677 16.2507 6.08575 16.2507 6.25151H17.5007C17.5007 5.75422 17.3031 5.27731 16.9515 4.92568C16.5999 4.57405 16.123 4.37651 15.6257 4.37651V5.62651ZM6.25069 16.8765V15.6265H5.00069V16.8765H6.25069ZM15.6257 4.37651H13.7507V5.62651H15.6257V4.37651ZM5.22444 6.77526L7.69319 6.38401L7.49819 5.14901L5.02881 5.54026L5.22444 6.77526ZM5.81069 10.479L11.9838 9.50088L11.7882 8.26651L5.61506 9.24401L5.81069 10.479ZM6.20194 12.9478L11.1401 12.1659L10.9451 10.9315L6.00631 11.7134L6.20194 12.9478ZM3.50069 3.88401L12.1432 2.51588L11.9476 1.28151L3.30506 2.65026L3.50069 3.88401ZM12.8582 3.03526L14.5207 13.529L15.7551 13.334L14.0926 2.84026L12.8582 3.03526ZM14.0007 14.244L5.35819 15.6128L5.55381 16.8471L14.1957 15.4784L14.0007 14.244ZM4.64319 15.0934L2.98069 4.59901L1.74631 4.79463L3.40881 15.2884L4.64319 15.0934ZM5.35819 15.6128C5.1945 15.6387 5.02723 15.5985 4.89315 15.5011C4.75907 15.4037 4.66915 15.2571 4.64319 15.0934L3.40881 15.2884C3.48672 15.7794 3.75645 16.22 4.15869 16.5122C4.56094 16.8044 5.06276 16.9249 5.55381 16.8471L5.35819 15.6128ZM14.5207 13.529C14.5335 13.6101 14.5302 13.6929 14.511 13.7728C14.4918 13.8526 14.4571 13.9278 14.4088 13.9942C14.3605 14.0606 14.2996 14.1169 14.2296 14.1597C14.1596 14.2026 14.0818 14.2312 14.0007 14.244L14.1957 15.4784C14.6868 15.4006 15.1276 15.131 15.4199 14.7287C15.7122 14.3264 15.8328 13.8245 15.7551 13.3334L14.5207 13.529ZM12.1426 2.51526C12.3062 2.48934 12.4735 2.5295 12.6076 2.6269C12.7417 2.7243 12.8316 2.87096 12.8576 3.03463L14.0919 2.83901C14.014 2.34798 13.7443 1.908 13.3421 1.61581C12.9398 1.32362 12.4386 1.20315 11.9476 1.28088L12.1426 2.51526ZM3.30506 2.65026C3.06182 2.68868 2.82853 2.77403 2.61851 2.90263C2.4085 3.03123 2.22587 3.19994 2.08107 3.39913C1.93626 3.59831 1.83211 3.82408 1.77457 4.06352C1.71702 4.30296 1.70783 4.55139 1.74631 4.79463L2.98069 4.59901C2.96786 4.51791 2.97114 4.43509 2.99034 4.35526C3.00953 4.27543 3.04426 4.20017 3.09255 4.13377C3.14084 4.06738 3.20174 4.01114 3.27177 3.96829C3.3418 3.92543 3.41959 3.89679 3.50069 3.88401L3.30506 2.65026Z" fill="#619267"/>
</svg>
