<svg width="20" height="20" viewBox="0 0 20 20" fill="none" xmlns="http://www.w3.org/2000/svg">
<g clip-path="url(#clip0_2548_6789)">
<path d="M4.844 8.6233C4.92864 8.6233 5.02304 8.63632 5.1272 8.66236C5.23137 8.6884 5.33554 8.72421 5.4397 8.76978C5.54387 8.81535 5.64804 8.85767 5.7522 8.89673C5.85637 8.9358 5.95077 8.97486 6.03541 9.01392L5.87916 9.03345C5.82707 9.03996 5.77173 9.04322 5.71314 9.04322C5.60246 9.04322 5.50155 9.02694 5.41041 8.99439C5.31926 8.96184 5.23463 8.91952 5.1565 8.86744C5.07838 8.81535 5.00025 8.77629 4.92213 8.75025C4.844 8.72421 4.77239 8.70468 4.70728 8.69166C4.64218 8.69166 4.58358 8.70468 4.5315 8.73072C4.47942 8.75676 4.42733 8.78606 4.37525 8.81861C4.37525 8.79257 4.35246 8.77955 4.30689 8.77955C4.35246 8.73397 4.4371 8.69817 4.5608 8.67212C4.68449 8.64608 4.7789 8.62981 4.844 8.6233ZM6.16236 9.06275C6.42929 9.06275 6.67343 9.10832 6.89478 9.19947C6.80364 9.23202 6.71249 9.25806 6.62134 9.27759C6.5302 9.29712 6.4358 9.31015 6.33814 9.31666C6.20793 9.31666 6.09074 9.30364 5.98658 9.27759C6.01913 9.22551 6.05168 9.19296 6.08423 9.17994C6.11679 9.16692 6.14283 9.12785 6.16236 9.06275ZM10.0002 0.000250401C10.9182 0.000250401 11.8004 0.120693 12.6467 0.361579C13.4931 0.602464 14.2874 0.93775 15.0295 1.36744C15.7717 1.79713 16.4488 2.32121 17.0608 2.9397C17.6728 3.55819 18.1936 4.23202 18.6233 4.96119C19.053 5.69035 19.3915 6.48463 19.6389 7.344C19.8863 8.20337 20.0068 9.08879 20.0002 10.0002C20.0002 10.9182 19.8798 11.8004 19.6389 12.6467C19.398 13.4931 19.0627 14.2874 18.6331 15.0295C18.2034 15.7717 17.6793 16.4488 17.0608 17.0608C16.4423 17.6728 15.7685 18.1936 15.0393 18.6233C14.3101 19.053 13.5159 19.3915 12.6565 19.6389C11.7971 19.8863 10.9117 20.0068 10.0002 20.0002C9.08228 20.0002 8.20012 19.8798 7.35377 19.6389C6.50741 19.398 5.71314 19.0627 4.97095 18.6331C4.22877 18.2034 3.55168 17.6793 2.9397 17.0608C2.32772 16.4423 1.80689 15.7685 1.3772 15.0393C0.947516 14.3101 0.608974 13.5159 0.361579 12.6565C0.114183 11.7971 -0.00626002 10.9117 0.000250401 10.0002C0.000250401 9.08228 0.120693 8.20012 0.361579 7.35377C0.602464 6.50741 0.93775 5.71314 1.36744 4.97095C1.79713 4.22877 2.32121 3.55168 2.9397 2.9397C3.55819 2.32772 4.23202 1.80689 4.96119 1.3772C5.69035 0.947516 6.48463 0.608974 7.344 0.361579C8.20337 0.114183 9.08879 -0.00626002 10.0002 0.000250401ZM17.4417 5.42017C17.3505 5.27694 17.2594 5.14022 17.1682 5.01002C17.0771 4.87981 16.9827 4.74634 16.885 4.60963C16.872 4.66822 16.8557 4.71054 16.8362 4.73658C16.8167 4.76262 16.8036 4.82121 16.7971 4.91236C16.7971 4.97095 16.8199 5.02629 16.8655 5.07838C16.9111 5.13046 16.9697 5.18254 17.0413 5.23463C17.1129 5.28671 17.1845 5.32577 17.2561 5.35181C17.3277 5.37785 17.3896 5.40064 17.4417 5.42017ZM16.7678 4.46314C16.7678 4.51522 16.7581 4.55103 16.7385 4.57056H16.7971C16.8232 4.57056 16.8427 4.57382 16.8557 4.58033L16.7678 4.46314ZM10.0002 18.7502C10.7424 18.7502 11.4683 18.6558 12.178 18.467C12.8876 18.2782 13.5582 18.0113 14.1897 17.6663C14.8212 17.3212 15.4072 16.898 15.9475 16.3967C16.4879 15.8954 16.9599 15.3355 17.3635 14.717C17.2789 14.5217 17.1975 14.3232 17.1194 14.1213C17.0413 13.9195 17.0022 13.7112 17.0022 13.4963C17.0022 13.262 17.012 13.0732 17.0315 12.9299C17.051 12.7867 17.0738 12.6598 17.0999 12.5491C17.1259 12.4384 17.1389 12.344 17.1389 12.2659C17.1389 12.1877 17.1292 12.0868 17.1096 11.9631C17.0901 11.8394 17.0348 11.706 16.9436 11.5627C16.8525 11.4195 16.732 11.2177 16.5823 10.9573C16.5888 10.9117 16.5986 10.8499 16.6116 10.7717C16.6246 10.6936 16.6376 10.6122 16.6506 10.5276C16.6637 10.443 16.6669 10.3648 16.6604 10.2932C16.6539 10.2216 16.6376 10.1598 16.6116 10.1077C16.4423 10.0881 16.2665 10.0523 16.0842 10.0002C15.9019 9.94817 15.7392 9.87004 15.596 9.76587L15.6545 9.71705C15.5699 9.73658 15.4853 9.76262 15.4006 9.79517C15.316 9.82772 15.2346 9.86353 15.1565 9.90259C15.0784 9.94166 14.9937 9.9677 14.9026 9.98072C14.8114 9.99374 14.7236 10.0068 14.6389 10.0198L14.4827 10.0002L14.512 9.93189C14.4208 9.95793 14.3232 9.99048 14.219 10.0295C14.1148 10.0686 14.0139 10.0881 13.9163 10.0881C13.8512 10.0881 13.7568 10.0654 13.6331 10.0198C13.5094 9.97421 13.3857 9.91887 13.262 9.85377C13.1383 9.78866 13.0276 9.71705 12.9299 9.63892C12.8323 9.5608 12.7835 9.48593 12.7835 9.41431L12.803 9.38502C12.7704 9.34595 12.7281 9.31015 12.676 9.27759C12.6239 9.24504 12.5751 9.21249 12.5295 9.17994C12.484 9.14739 12.4417 9.11158 12.4026 9.07252C12.3635 9.03345 12.3473 8.98788 12.3538 8.9358L12.4612 8.84791L12.2366 8.81861L12.1585 8.52564C12.1715 8.55819 12.2008 8.57121 12.2463 8.5647C12.2919 8.55819 12.3277 8.54517 12.3538 8.52564L12.0022 8.34009L12.2463 7.71509C12.1552 7.37655 12.1324 7.11614 12.178 6.93384C12.2236 6.75155 12.3114 6.60181 12.4417 6.48463C12.5719 6.36744 12.7151 6.25025 12.8713 6.13306C13.0276 6.01588 13.1871 5.85637 13.3499 5.65455L13.3206 5.53736L13.9651 4.75611L14.1116 4.73658C14.2939 4.73658 14.4989 4.73007 14.7268 4.71705C14.9547 4.70403 15.1858 4.68124 15.4202 4.64869C15.6545 4.61614 15.8857 4.58358 16.1135 4.55103C16.3414 4.51848 16.5497 4.47616 16.7385 4.42408C16.5302 4.17668 16.3121 3.94231 16.0842 3.72095C15.8564 3.4996 15.6122 3.28801 15.3518 3.08619C15.2802 3.11223 15.1923 3.14804 15.0881 3.19361C14.984 3.23918 14.8798 3.29778 14.7756 3.36939C14.6715 3.44101 14.5901 3.51913 14.5315 3.60377C14.4729 3.6884 14.4371 3.77629 14.4241 3.86744L14.4827 4.05298C14.3655 4.24179 14.2353 4.35897 14.092 4.40455C13.9488 4.45012 13.8023 4.47616 13.6526 4.48267C13.5029 4.48918 13.3466 4.48918 13.1838 4.48267C13.0211 4.47616 12.8648 4.50546 12.7151 4.57056L12.5588 4.23853L12.7053 3.67213L12.5393 3.42798L14.2288 2.90064C14.1572 2.71835 14.04 2.58163 13.8772 2.49048C13.7144 2.39934 13.5354 2.35377 13.3401 2.35377V2.25611L13.887 2.16822C13.2815 1.86874 12.6532 1.64088 12.0022 1.48463C11.3512 1.32838 10.6838 1.25025 10.0002 1.25025C9.43384 1.25025 8.87395 1.30559 8.32056 1.41627C7.76718 1.52694 7.23332 1.68645 6.719 1.89478C6.20468 2.10311 5.70663 2.36353 5.22486 2.67603C4.74309 2.98853 4.30364 3.34009 3.9065 3.73072C4.07577 3.73072 4.20598 3.77304 4.29713 3.85767C4.38827 3.94231 4.47291 4.03671 4.55103 4.14088C4.62916 4.24504 4.71054 4.33944 4.79517 4.42408C4.87981 4.50871 4.99374 4.55429 5.13697 4.5608L5.29322 4.44361L5.27369 4.22877L5.59595 3.76978L5.34205 3.04713C5.3746 3.02759 5.42343 2.99504 5.48853 2.94947C5.55364 2.9039 5.60897 2.88111 5.65455 2.88111C5.84986 2.88111 5.9996 2.89088 6.10377 2.91041C6.20793 2.92994 6.29908 2.96575 6.3772 3.01783C6.45533 3.06991 6.52369 3.14478 6.58228 3.24244C6.64088 3.34009 6.73202 3.46379 6.85572 3.61353L7.20728 3.34009C7.27239 3.36614 7.37655 3.40845 7.51978 3.46705C7.66301 3.52564 7.80949 3.59726 7.95923 3.68189C8.10897 3.76653 8.23593 3.85442 8.34009 3.94556C8.44426 4.03671 8.4996 4.12134 8.50611 4.19947C8.50611 4.29713 8.4703 4.37525 8.39869 4.43384C8.32707 4.49244 8.23267 4.54127 8.11548 4.58033C7.9983 4.61939 7.87785 4.64869 7.75416 4.66822C7.63046 4.68775 7.50676 4.71379 7.38306 4.74634C7.25937 4.7789 7.16496 4.81145 7.09986 4.844C7.03476 4.87655 6.99569 4.93189 6.98267 5.01002L7.54908 5.19556C7.41887 5.30624 7.2789 5.40715 7.12916 5.4983C6.97942 5.58944 6.82317 5.67408 6.66041 5.7522L6.69947 5.91822L5.80103 6.26978V6.54322L5.73267 6.57252L5.7815 6.23072L5.74244 6.22095C5.69687 6.22095 5.67082 6.23072 5.66431 6.25025C5.6578 6.26978 5.65455 6.29257 5.65455 6.31861C5.65455 6.34465 5.66106 6.37069 5.67408 6.39673C5.6871 6.42278 5.69035 6.44231 5.68384 6.45533L5.55689 6.38697L5.57642 6.42603C5.57642 6.44556 5.58619 6.47486 5.60572 6.51392C5.62525 6.55298 5.65129 6.58879 5.68384 6.62134C5.7164 6.6539 5.74244 6.68645 5.76197 6.719C5.7815 6.75155 5.79452 6.76783 5.80103 6.76783C5.80103 6.78736 5.78801 6.80689 5.76197 6.82642C5.73593 6.84595 5.70338 6.85897 5.66431 6.86548C5.62525 6.87199 5.59921 6.88176 5.58619 6.89478C5.57317 6.9078 5.57317 6.91106 5.58619 6.90455C5.67733 6.90455 5.69687 6.91106 5.64478 6.92408C5.5927 6.9371 5.51132 6.96965 5.40064 7.02173C5.28996 7.07382 5.18905 7.14869 5.09791 7.24634C5.00676 7.344 4.95468 7.48723 4.94166 7.67603C4.94166 7.78671 4.94491 7.89413 4.95142 7.9983C4.95793 8.10246 4.95468 8.20989 4.94166 8.32056C4.85051 8.07317 4.71379 7.88437 4.5315 7.75416C4.34921 7.62395 4.12785 7.55884 3.86744 7.55884L3.44752 7.59791L3.65259 7.73463C3.54192 7.7216 3.42798 7.70858 3.3108 7.69556C3.19361 7.68254 3.07317 7.67929 2.94947 7.6858C2.82577 7.69231 2.71509 7.71835 2.61744 7.76392C2.51978 7.80949 2.42213 7.87785 2.32447 7.969L2.26588 8.40845C2.26588 8.61679 2.31145 8.78606 2.40259 8.91627C2.49374 9.04647 2.65325 9.11483 2.88111 9.12134C3.07642 9.12134 3.26848 9.09205 3.45728 9.03345C3.64608 8.97486 3.83163 8.9065 4.01392 8.82837C3.95533 8.9716 3.89022 9.10832 3.81861 9.23853C3.747 9.36874 3.69491 9.51197 3.66236 9.66822L3.78931 9.72681C3.94556 9.62265 4.08879 9.60637 4.219 9.67798C4.34921 9.7496 4.47616 9.85377 4.59986 9.99048C4.72356 10.1272 4.85051 10.2672 4.98072 10.4104C5.11093 10.5536 5.2509 10.6578 5.40064 10.7229L5.06861 10.8987L4.28736 10.4592C4.29387 10.4723 4.30038 10.5016 4.30689 10.5471C4.3134 10.5927 4.31015 10.6025 4.29713 10.5764L3.94556 9.98072C3.73723 9.97421 3.51588 9.94166 3.2815 9.88306C3.04713 9.82447 2.8095 9.74634 2.56861 9.64869C2.32772 9.55103 2.10311 9.44361 1.89478 9.32642C1.68645 9.20923 1.49439 9.08554 1.31861 8.95533L1.25025 10.0002C1.25025 10.7945 1.35767 11.5693 1.57252 12.3245C1.78736 13.0797 2.09009 13.7893 2.48072 14.4534C2.87134 15.1174 3.34986 15.7229 3.91627 16.2698C4.48267 16.8167 5.11093 17.2822 5.80103 17.6663C5.76848 17.5295 5.76522 17.3928 5.79127 17.2561C5.81731 17.1194 5.84986 16.9827 5.88892 16.846C5.92798 16.7092 5.9703 16.5725 6.01588 16.4358C6.06145 16.2991 6.08423 16.1591 6.08423 16.0159C6.08423 15.8075 6.05168 15.5894 5.98658 15.3616C5.92147 15.1337 5.84335 14.9026 5.7522 14.6682C5.66106 14.4338 5.56015 14.2027 5.44947 13.9749C5.33879 13.747 5.2509 13.5322 5.1858 13.3303C5.12069 13.1285 5.06861 12.9397 5.02955 12.7639C4.99048 12.5881 5.01002 12.4351 5.08814 12.3049L4.94166 12.2366C4.98072 12.1454 5.0328 12.0575 5.09791 11.9729C5.16301 11.8883 5.23137 11.8036 5.30298 11.719C5.3746 11.6344 5.42994 11.5432 5.469 11.4456C5.50806 11.3479 5.53085 11.2502 5.53736 11.1526C5.53736 11.0875 5.52434 11.0191 5.4983 10.9475C5.47226 10.8759 5.44947 10.8075 5.42994 10.7424L5.63502 10.7913C5.74569 10.5374 5.89543 10.3648 6.08423 10.2737C6.27304 10.1825 6.51067 10.1337 6.79713 10.1272C6.82968 10.1272 6.89804 10.1402 7.0022 10.1663C7.10637 10.1923 7.21705 10.2281 7.33423 10.2737C7.45142 10.3193 7.5621 10.3551 7.66627 10.3811C7.77043 10.4072 7.84856 10.4332 7.90064 10.4592C7.90064 10.5048 7.92668 10.5341 7.97877 10.5471C8.03085 10.5601 8.06015 10.5829 8.06666 10.6155L8.04712 10.6936C8.06666 10.7001 8.11223 10.7229 8.18384 10.762C8.25546 10.801 8.33358 10.8499 8.41822 10.9085C8.50285 10.967 8.57772 11.0191 8.64283 11.0647C8.70793 11.1103 8.75351 11.1461 8.77955 11.1721C8.89673 11.1721 9.05624 11.2112 9.25806 11.2893C9.45989 11.3674 9.68124 11.4651 9.92212 11.5823C10.163 11.6995 10.4006 11.8394 10.635 12.0022C10.8694 12.165 11.0907 12.3277 11.2991 12.4905C11.5074 12.6532 11.6669 12.816 11.7776 12.9788C11.8883 13.1415 11.9534 13.2848 11.9729 13.4085L11.6409 13.76C11.6669 14.092 11.6441 14.346 11.5725 14.5217C11.5009 14.6975 11.3902 14.844 11.2405 14.9612C11.0907 15.0784 10.9182 15.176 10.7229 15.2542C10.5276 15.3323 10.316 15.443 10.0881 15.5862C10.0881 15.7164 10.0556 15.8564 9.99048 16.0061C9.92538 16.1558 9.844 16.2991 9.74634 16.4358C9.64869 16.5725 9.5315 16.6864 9.39478 16.7776C9.25806 16.8687 9.12134 16.9143 8.98462 16.9143L8.57447 16.6018C8.58749 16.6148 8.58749 16.6376 8.57447 16.6702C8.56145 16.7027 8.54517 16.7092 8.52564 16.6897C8.59074 16.8134 8.60702 16.9566 8.57447 17.1194C8.54192 17.2822 8.48658 17.4482 8.40845 17.6174C8.33033 17.7867 8.24244 17.9462 8.14478 18.096C8.04712 18.2457 7.95923 18.3726 7.88111 18.4768C8.23267 18.568 8.58423 18.6363 8.9358 18.6819C9.28736 18.7275 9.64218 18.7502 10.0002 18.7502Z" fill="#619267"/>
</g>
<defs>
<clipPath id="clip0_2548_6789">
<rect width="20" height="20" fill="white"/>
</clipPath>
</defs>
</svg>
