<svg width="22" height="17" viewBox="0 0 22 17" fill="none" xmlns="http://www.w3.org/2000/svg">
<path d="M1.02068 8.822C0.95079 8.61473 0.95079 8.39027 1.02068 8.183C2.40768 4.01 6.34468 1 10.9847 1C15.6227 1 19.5577 4.007 20.9477 8.178C21.0177 8.385 21.0177 8.609 20.9477 8.817C19.5617 12.99 15.6247 16 10.9847 16C6.34668 16 2.41068 12.993 1.02068 8.822Z" stroke="#FAF6F0" stroke-width="1.5" stroke-linecap="round" stroke-linejoin="round"/>
<path d="M13.9849 8.5C13.9849 9.29565 13.6688 10.0587 13.1062 10.6213C12.5436 11.1839 11.7805 11.5 10.9849 11.5C10.1892 11.5 9.42615 11.1839 8.86354 10.6213C8.30093 10.0587 7.98486 9.29565 7.98486 8.5C7.98486 7.70435 8.30093 6.94129 8.86354 6.37868C9.42615 5.81607 10.1892 5.5 10.9849 5.5C11.7805 5.5 12.5436 5.81607 13.1062 6.37868C13.6688 6.94129 13.9849 7.70435 13.9849 8.5Z" stroke="#FAF6F0" stroke-width="1.5" stroke-linecap="round" stroke-linejoin="round"/>
</svg>
