<svg width="25" height="24" viewBox="0 0 25 24" fill="none" xmlns="http://www.w3.org/2000/svg">
<path d="M13.1069 3.25H7.44686C6.91186 3.25 6.46686 3.25 6.10186 3.28C5.72186 3.31 5.36586 3.378 5.02886 3.55C4.5113 3.81367 4.09053 4.23445 3.82686 4.752C3.65486 5.089 3.58686 5.445 3.55686 5.825C3.52686 6.19 3.52686 6.635 3.52686 7.17V16.83C3.52686 17.365 3.52686 17.81 3.55686 18.175C3.58686 18.555 3.65486 18.911 3.82686 19.248C4.09053 19.7656 4.5113 20.1863 5.02886 20.45C5.20686 20.541 5.42786 20.577 5.55886 20.596C5.72586 20.621 5.92686 20.64 6.14286 20.656C6.57686 20.688 7.11786 20.709 7.66986 20.723C8.62186 20.746 9.57486 20.75 10.5269 20.75C10.7258 20.75 10.9165 20.671 11.0572 20.5303C11.1978 20.3897 11.2769 20.1989 11.2769 20C11.2769 19.8011 11.1978 19.6103 11.0572 19.4697C10.9165 19.329 10.7258 19.25 10.5269 19.25C9.96686 19.25 8.79186 19.25 7.70686 19.223C7.22177 19.213 6.73698 19.192 6.25286 19.16C6.05219 19.1447 5.89352 19.1287 5.77686 19.112L5.67086 19.094C5.45273 18.973 5.27581 18.7894 5.16286 18.567C5.11686 18.477 5.07486 18.34 5.05186 18.052C5.02786 17.757 5.02686 17.372 5.02686 16.8V7.2C5.02686 6.628 5.02686 6.243 5.05186 5.947C5.07486 5.66 5.11686 5.523 5.16286 5.433C5.28276 5.19741 5.47427 5.00591 5.70986 4.886C5.79986 4.84 5.93686 4.798 6.22386 4.775C6.51986 4.751 6.90386 4.75 7.47686 4.75H13.0769C13.6489 4.75 14.0339 4.75 14.3289 4.775C14.6169 4.798 14.7539 4.84 14.8449 4.886C15.0799 5.006 15.2709 5.197 15.3909 5.433C15.4369 5.523 15.4789 5.66 15.5019 5.947C15.5259 6.243 15.5269 6.627 15.5269 7.2V10.25C15.5269 10.4489 15.6059 10.6397 15.7465 10.7803C15.8872 10.921 16.0779 11 16.2769 11C16.4758 11 16.6665 10.921 16.8072 10.7803C16.9478 10.6397 17.0269 10.4489 17.0269 10.25V7.17C17.0269 6.635 17.0269 6.19 16.9969 5.825C16.9669 5.445 16.8989 5.089 16.7269 4.752C16.4637 4.23475 16.0437 3.81401 15.5269 3.55C15.1889 3.378 14.8329 3.31 14.4529 3.28C14.0879 3.25 13.6429 3.25 13.1079 3.25" fill="white"/>
<path d="M14.6479 12.25H18.9059C19.3009 12.25 19.6419 12.25 19.9229 12.273C20.2199 12.297 20.5149 12.351 20.7979 12.495C21.2219 12.711 21.5659 13.055 21.7819 13.479C21.9259 13.762 21.9799 14.057 22.0039 14.354C22.0269 14.634 22.0269 14.976 22.0269 15.371V17.629C22.0269 18.024 22.0269 18.365 22.0039 18.646C21.9884 18.9495 21.9129 19.2469 21.7819 19.521C21.5663 19.9446 21.2222 20.289 20.7989 20.505C20.5149 20.649 20.2189 20.703 19.9229 20.727C19.6429 20.75 19.3009 20.75 18.9059 20.75H14.6479C14.2529 20.75 13.9119 20.75 13.6309 20.727C13.3274 20.7115 13.03 20.6361 12.7559 20.505C12.3323 20.2895 11.9878 19.9454 11.7719 19.522C11.6407 19.2476 11.5652 18.9498 11.5499 18.646C11.5269 18.366 11.5269 18.024 11.5269 17.629V15.37C11.5269 14.975 11.5269 14.634 11.5499 14.353C11.5653 14.0495 11.6408 13.7521 11.7719 13.478C11.9876 13.0543 12.3321 12.7098 12.7559 12.494C13.03 12.3629 13.3274 12.2875 13.6309 12.272C13.9109 12.249 14.2529 12.249 14.6479 12.249M13.0269 15.4V16.25H20.5269V15.4C20.5269 15.131 20.5269 14.921 20.5219 14.75H13.0319C13.0269 14.921 13.0269 15.131 13.0269 15.4ZM6.02686 7C6.02686 6.80109 6.10587 6.61032 6.24653 6.46967C6.38718 6.32902 6.57794 6.25 6.77686 6.25H10.7769C10.9758 6.25 11.1665 6.32902 11.3072 6.46967C11.4478 6.61032 11.5269 6.80109 11.5269 7C11.5269 7.19891 11.4478 7.38968 11.3072 7.53033C11.1665 7.67098 10.9758 7.75 10.7769 7.75H6.77686C6.57794 7.75 6.38718 7.67098 6.24653 7.53033C6.10587 7.38968 6.02686 7.19891 6.02686 7ZM6.77686 9.25C6.57794 9.25 6.38718 9.32902 6.24653 9.46967C6.10587 9.61032 6.02686 9.80109 6.02686 10C6.02686 10.1989 6.10587 10.3897 6.24653 10.5303C6.38718 10.671 6.57794 10.75 6.77686 10.75H13.7769C13.9758 10.75 14.1665 10.671 14.3072 10.5303C14.4478 10.3897 14.5269 10.1989 14.5269 10C14.5269 9.80109 14.4478 9.61032 14.3072 9.46967C14.1665 9.32902 13.9758 9.25 13.7769 9.25H6.77686ZM6.02686 13C6.02686 12.8011 6.10587 12.6103 6.24653 12.4697C6.38718 12.329 6.57794 12.25 6.77686 12.25H10.2769C10.4758 12.25 10.6665 12.329 10.8072 12.4697C10.9478 12.6103 11.0269 12.8011 11.0269 13C11.0269 13.1989 10.9478 13.3897 10.8072 13.5303C10.6665 13.671 10.4758 13.75 10.2769 13.75H6.77686C6.57794 13.75 6.38718 13.671 6.24653 13.5303C6.10587 13.3897 6.02686 13.1989 6.02686 13ZM6.77686 16.25C6.57794 16.25 6.38718 16.329 6.24653 16.4697C6.10587 16.6103 6.02686 16.8011 6.02686 17C6.02686 17.1989 6.10587 17.3897 6.24653 17.5303C6.38718 17.671 6.57794 17.75 6.77686 17.75H8.77686C8.97577 17.75 9.16653 17.671 9.30719 17.5303C9.44784 17.3897 9.52686 17.1989 9.52686 17C9.52686 16.8011 9.44784 16.6103 9.30719 16.4697C9.16653 16.329 8.97577 16.25 8.77686 16.25H6.77686Z" fill="white"/>
</svg>
