<svg width="24" height="25" viewBox="0 0 24 25" fill="none" xmlns="http://www.w3.org/2000/svg">
<g id="mdi:contact">
<path id="Vector" d="M6 17.5C6 15.5 10 14.4 12 14.4C14 14.4 18 15.5 18 17.5V18.5H6M15 9.5C15 10.2956 14.6839 11.0587 14.1213 11.6213C13.5587 12.1839 12.7956 12.5 12 12.5C11.2044 12.5 10.4413 12.1839 9.87868 11.6213C9.31607 11.0587 9 10.2956 9 9.5C9 8.70435 9.31607 7.94129 9.87868 7.37868C10.4413 6.81607 11.2044 6.5 12 6.5C12.7956 6.5 13.5587 6.81607 14.1213 7.37868C14.6839 7.94129 15 8.70435 15 9.5ZM3 5.5V19.5C3 20.0304 3.21071 20.5391 3.58579 20.9142C3.96086 21.2893 4.46957 21.5 5 21.5H19C19.5304 21.5 20.0391 21.2893 20.4142 20.9142C20.7893 20.5391 21 20.0304 21 19.5V5.5C21 4.96957 20.7893 4.46086 20.4142 4.08579C20.0391 3.71071 19.5304 3.5 19 3.5H5C4.46957 3.5 3.96086 3.71071 3.58579 4.08579C3.21071 4.46086 3 4.96957 3 5.5Z" fill="url(#paint0_linear_2374_5371)"/>
</g>
<defs>
<linearGradient id="paint0_linear_2374_5371" x1="0.365626" y1="0.177352" x2="20.3915" y2="21.3708" gradientUnits="userSpaceOnUse">
<stop offset="0.2" stop-color="#5B7F60"/>
<stop offset="0.536968" stop-color="#3E6042"/>
<stop offset="0.920029" stop-color="#04271C"/>
</linearGradient>
</defs>
</svg>
