<svg width="528" height="53" viewBox="0 0 528 53" fill="none" xmlns="http://www.w3.org/2000/svg">
<g filter="url(#filter0_i_2375_5620)">
<rect width="528" height="53" rx="6" fill="#141414"/>
<rect x="1" y="1" width="526" height="51" rx="5" stroke="#333333" stroke-width="2"/>
<path fill-rule="evenodd" clip-rule="evenodd" d="M20.4645 29.9645C21.4021 29.0268 22.6739 28.5 24 28.5H32C33.3261 28.5 34.5979 29.0268 35.5355 29.9645C36.4732 30.9021 37 32.1739 37 33.5V35.5C37 36.0523 36.5523 36.5 36 36.5C35.4477 36.5 35 36.0523 35 35.5V33.5C35 32.7044 34.6839 31.9413 34.1213 31.3787C33.5587 30.8161 32.7956 30.5 32 30.5H24C23.2044 30.5 22.4413 30.8161 21.8787 31.3787C21.3161 31.9413 21 32.7044 21 33.5V35.5C21 36.0523 20.5523 36.5 20 36.5C19.4477 36.5 19 36.0523 19 35.5V33.5C19 32.1739 19.5268 30.9021 20.4645 29.9645Z" fill="url(#paint0_linear_2375_5620)"/>
<path fill-rule="evenodd" clip-rule="evenodd" d="M28 18.5C26.3431 18.5 25 19.8431 25 21.5C25 23.1569 26.3431 24.5 28 24.5C29.6569 24.5 31 23.1569 31 21.5C31 19.8431 29.6569 18.5 28 18.5ZM23 21.5C23 18.7386 25.2386 16.5 28 16.5C30.7614 16.5 33 18.7386 33 21.5C33 24.2614 30.7614 26.5 28 26.5C25.2386 26.5 23 24.2614 23 21.5Z" fill="url(#paint1_linear_2375_5620)"/>
<path d="M52.542 31.5L49.07 21.42H50.141L53.214 30.331L56.308 21.42H57.379L53.907 31.5H52.542ZM60.7942 31.71C60.0569 31.71 59.4176 31.5467 58.8762 31.22C58.3396 30.8933 57.9219 30.4337 57.6232 29.841C57.3246 29.2483 57.1752 28.553 57.1752 27.755C57.1752 26.929 57.3222 26.215 57.6162 25.613C57.9102 25.011 58.3232 24.5467 58.8552 24.22C59.3919 23.8933 60.0242 23.73 60.7522 23.73C61.4989 23.73 62.1359 23.9027 62.6632 24.248C63.1906 24.5887 63.5896 25.0787 63.8602 25.718C64.1309 26.3573 64.2546 27.1203 64.2312 28.007H63.1812V27.643C63.1626 26.663 62.9502 25.9233 62.5442 25.424C62.1429 24.9247 61.5549 24.675 60.7802 24.675C59.9682 24.675 59.3452 24.9387 58.9112 25.466C58.4819 25.9933 58.2672 26.7447 58.2672 27.72C58.2672 28.672 58.4819 29.4117 58.9112 29.939C59.3452 30.4617 59.9589 30.723 60.7522 30.723C61.2936 30.723 61.7649 30.5993 62.1662 30.352C62.5722 30.1 62.8919 29.7383 63.1252 29.267L64.0842 29.638C63.7856 30.296 63.3446 30.807 62.7612 31.171C62.1826 31.5303 61.5269 31.71 60.7942 31.71ZM57.9032 28.007V27.146H63.6782V28.007H57.9032ZM68.9837 31.71C68.2464 31.71 67.607 31.5467 67.0657 31.22C66.529 30.8933 66.1114 30.4337 65.8127 29.841C65.514 29.2483 65.3647 28.553 65.3647 27.755C65.3647 26.929 65.5117 26.215 65.8057 25.613C66.0997 25.011 66.5127 24.5467 67.0447 24.22C67.5814 23.8933 68.2137 23.73 68.9417 23.73C69.6884 23.73 70.3254 23.9027 70.8527 24.248C71.38 24.5887 71.779 25.0787 72.0497 25.718C72.3204 26.3573 72.444 27.1203 72.4207 28.007H71.3707V27.643C71.352 26.663 71.1397 25.9233 70.7337 25.424C70.3324 24.9247 69.7444 24.675 68.9697 24.675C68.1577 24.675 67.5347 24.9387 67.1007 25.466C66.6714 25.9933 66.4567 26.7447 66.4567 27.72C66.4567 28.672 66.6714 29.4117 67.1007 29.939C67.5347 30.4617 68.1484 30.723 68.9417 30.723C69.483 30.723 69.9544 30.5993 70.3557 30.352C70.7617 30.1 71.0814 29.7383 71.3147 29.267L72.2737 29.638C71.975 30.296 71.534 30.807 70.9507 31.171C70.372 31.5303 69.7164 31.71 68.9837 31.71ZM66.0927 28.007V27.146H71.8677V28.007H66.0927ZM76.9071 31.71C76.2025 31.71 75.6005 31.535 75.1011 31.185C74.6018 30.8303 74.2191 30.352 73.9531 29.75C73.6871 29.148 73.5541 28.469 73.5541 27.713C73.5541 26.9617 73.6848 26.285 73.9461 25.683C74.2121 25.081 74.5925 24.605 75.0871 24.255C75.5818 23.905 76.1745 23.73 76.8651 23.73C77.5745 23.73 78.1718 23.9027 78.6571 24.248C79.1425 24.5933 79.5088 25.067 79.7561 25.669C80.0081 26.2663 80.1341 26.9477 80.1341 27.713C80.1341 28.4643 80.0105 29.1433 79.7631 29.75C79.5158 30.352 79.1518 30.8303 78.6711 31.185C78.1905 31.535 77.6025 31.71 76.9071 31.71ZM77.0121 30.751C77.5488 30.751 77.9921 30.6203 78.3421 30.359C78.6921 30.0977 78.9535 29.7383 79.1261 29.281C79.2988 28.819 79.3851 28.2963 79.3851 27.713C79.3851 27.1203 79.2988 26.5977 79.1261 26.145C78.9535 25.6877 78.6921 25.3307 78.3421 25.074C77.9968 24.8173 77.5605 24.689 77.0331 24.689C76.4918 24.689 76.0438 24.822 75.6891 25.088C75.3345 25.354 75.0708 25.7157 74.8981 26.173C74.7301 26.6303 74.6461 27.1437 74.6461 27.713C74.6461 28.287 74.7325 28.805 74.9051 29.267C75.0825 29.7243 75.3461 30.086 75.6961 30.352C76.0461 30.618 76.4848 30.751 77.0121 30.751ZM79.3851 31.5V25.809H79.2731V21.42H80.3091V31.5H79.3851ZM84.436 31.71C83.8666 31.71 83.3883 31.6073 83.001 31.402C82.6183 31.1967 82.3313 30.9237 82.14 30.583C81.9486 30.2423 81.853 29.8713 81.853 29.47C81.853 29.0593 81.9346 28.7093 82.098 28.42C82.266 28.126 82.4923 27.8857 82.777 27.699C83.0663 27.5123 83.4 27.37 83.778 27.272C84.1606 27.1787 84.583 27.097 85.045 27.027C85.5116 26.9523 85.9666 26.8893 86.41 26.838C86.858 26.782 87.25 26.7283 87.586 26.677L87.222 26.901C87.236 26.1543 87.0913 25.6013 86.788 25.242C86.4846 24.8827 85.9573 24.703 85.206 24.703C84.688 24.703 84.2493 24.8197 83.89 25.053C83.5353 25.2863 83.2856 25.655 83.141 26.159L82.14 25.865C82.3126 25.1883 82.6603 24.6633 83.183 24.29C83.7056 23.9167 84.3846 23.73 85.22 23.73C85.9106 23.73 86.4963 23.8607 86.977 24.122C87.4623 24.3787 87.8053 24.752 88.006 25.242C88.0993 25.4613 88.16 25.7063 88.188 25.977C88.216 26.2477 88.23 26.523 88.23 26.803V31.5H87.313V29.603L87.579 29.715C87.3223 30.3637 86.9233 30.8583 86.382 31.199C85.8406 31.5397 85.192 31.71 84.436 31.71ZM84.555 30.821C85.0356 30.821 85.4556 30.7347 85.815 30.562C86.1743 30.3893 86.4636 30.1537 86.683 29.855C86.9023 29.5517 87.0446 29.211 87.11 28.833C87.166 28.5903 87.1963 28.3243 87.201 28.035C87.2056 27.741 87.208 27.5217 87.208 27.377L87.6 27.58C87.25 27.6267 86.8696 27.6733 86.459 27.72C86.053 27.7667 85.6516 27.8203 85.255 27.881C84.863 27.9417 84.5083 28.014 84.191 28.098C83.9763 28.1587 83.7686 28.245 83.568 28.357C83.3673 28.4643 83.2016 28.609 83.071 28.791C82.945 28.973 82.882 29.1993 82.882 29.47C82.882 29.6893 82.9356 29.9017 83.043 30.107C83.155 30.3123 83.3323 30.4827 83.575 30.618C83.8223 30.7533 84.149 30.821 84.555 30.821ZM91.8093 31.5V22.568L89.9123 23.709V22.554L91.8093 21.42H92.8523V31.5H91.8093ZM95.2273 31.493L95.2343 30.555L99.7913 26.439C100.183 26.0843 100.442 25.7483 100.568 25.431C100.699 25.109 100.764 24.773 100.764 24.423C100.764 24.0077 100.666 23.632 100.47 23.296C100.274 22.96 100.011 22.694 99.6793 22.498C99.348 22.2973 98.977 22.197 98.5663 22.197C98.137 22.197 97.7543 22.2997 97.4183 22.505C97.0823 22.7103 96.8163 22.981 96.6203 23.317C96.429 23.653 96.3357 24.0193 96.3403 24.416H95.2903C95.2903 23.8047 95.435 23.2563 95.7243 22.771C96.0137 22.2857 96.4057 21.9053 96.9003 21.63C97.395 21.35 97.955 21.21 98.5803 21.21C99.1917 21.21 99.74 21.3547 100.225 21.644C100.715 21.9287 101.1 22.316 101.38 22.806C101.665 23.2913 101.807 23.8327 101.807 24.43C101.807 24.85 101.756 25.221 101.653 25.543C101.555 25.8603 101.399 26.1567 101.184 26.432C100.974 26.7027 100.706 26.9827 100.379 27.272L96.3333 30.926L96.1723 30.506H101.807V31.493H95.2273ZM106.201 31.703C105.701 31.703 105.242 31.6143 104.822 31.437C104.402 31.2597 104.04 31.0077 103.737 30.681C103.433 30.3497 103.212 29.9553 103.072 29.498L104.052 29.204C104.22 29.7033 104.495 30.0813 104.878 30.338C105.265 30.5947 105.701 30.7183 106.187 30.709C106.635 30.6997 107.02 30.5993 107.342 30.408C107.668 30.2167 107.918 29.9507 108.091 29.61C108.263 29.2693 108.35 28.875 108.35 28.427C108.35 27.741 108.149 27.1903 107.748 26.775C107.351 26.355 106.826 26.145 106.173 26.145C105.991 26.145 105.799 26.1707 105.599 26.222C105.398 26.2687 105.211 26.3363 105.039 26.425L104.521 25.606L108.441 21.987L108.609 22.407H103.471V21.42H109.295V22.421L105.879 25.683L105.865 25.277C106.565 25.1883 107.181 25.2677 107.713 25.515C108.245 25.7623 108.66 26.1403 108.959 26.649C109.262 27.153 109.414 27.7457 109.414 28.427C109.414 29.071 109.274 29.6403 108.994 30.135C108.718 30.625 108.338 31.01 107.853 31.29C107.367 31.5653 106.817 31.703 106.201 31.703Z" fill="white"/>
</g>
<defs>
<filter id="filter0_i_2375_5620" x="0" y="0" width="528" height="53" filterUnits="userSpaceOnUse" color-interpolation-filters="sRGB">
<feFlood flood-opacity="0" result="BackgroundImageFix"/>
<feBlend mode="normal" in="SourceGraphic" in2="BackgroundImageFix" result="shape"/>
<feColorMatrix in="SourceAlpha" type="matrix" values="0 0 0 0 0 0 0 0 0 0 0 0 0 0 0 0 0 0 127 0" result="hardAlpha"/>
<feOffset dy="1"/>
<feComposite in2="hardAlpha" operator="arithmetic" k2="-1" k3="1"/>
<feColorMatrix type="matrix" values="0 0 0 0 0.2128 0 0 0 0 0.23072 0 0 0 0 0.28 0 0 0 0.25 0"/>
<feBlend mode="normal" in2="shape" result="effect1_innerShadow_2375_5620"/>
</filter>
<linearGradient id="paint0_linear_2375_5620" x1="16.3656" y1="27.0233" x2="22.7307" y2="42.1796" gradientUnits="userSpaceOnUse">
<stop offset="0.2" stop-color="#5B7F60"/>
<stop offset="0.536968" stop-color="#3E6042"/>
<stop offset="0.920029" stop-color="#04271C"/>
</linearGradient>
<linearGradient id="paint1_linear_2375_5620" x1="21.5365" y1="14.6541" x2="32.662" y2="26.4282" gradientUnits="userSpaceOnUse">
<stop offset="0.2" stop-color="#5B7F60"/>
<stop offset="0.536968" stop-color="#3E6042"/>
<stop offset="0.920029" stop-color="#04271C"/>
</linearGradient>
</defs>
</svg>
