<svg width="34" height="11" viewBox="0 0 34 11" fill="none" xmlns="http://www.w3.org/2000/svg">
<g clip-path="url(#clip0_2427_29968)">
<path d="M17.5466 3.49963C17.5272 5.02585 18.9067 5.87749 19.9459 6.38388C21.0136 6.9034 21.3722 7.23658 21.368 7.70123C21.36 8.41226 20.5163 8.72609 19.7268 8.73828C18.3495 8.75962 17.5486 8.3664 16.9119 8.069L16.4157 10.3908C17.0545 10.6851 18.2373 10.9419 19.4639 10.9531C22.3431 10.9531 24.2268 9.53187 24.237 7.32829C24.2482 4.53164 20.3687 4.37685 20.3952 3.12682C20.4043 2.74779 20.766 2.34331 21.5585 2.24046C21.9508 2.18851 23.0337 2.14875 24.2615 2.71412L24.7434 0.46774C24.0831 0.22733 23.2345 -0.00287533 22.178 -0.00287533C19.468 -0.00287533 17.562 1.43773 17.5466 3.49963ZM29.3737 0.190619C28.848 0.190619 28.4049 0.497293 28.2072 0.967908L24.0944 10.7881H26.9715L27.544 9.20585H31.0598L31.3919 10.7881H33.9277L31.7149 0.190619H29.3737ZM29.7762 3.0534L30.6065 7.03288H28.3326L29.7762 3.0534ZM14.0583 0.190751L11.7904 10.788H14.5321L16.7989 0.190486L14.0583 0.190751ZM10.0024 0.190751L7.14881 7.4037L5.99447 1.27061C5.85902 0.585957 5.32413 0.190619 4.73013 0.190619H0.0653374L0 0.498354C0.957663 0.706161 2.04573 1.04133 2.70494 1.39996C3.10836 1.61903 3.2234 1.81053 3.35593 2.33111L5.54228 10.7881H8.43952L12.8814 0.190619L10.0024 0.190751Z" fill="url(#paint0_linear_2427_29968)"/>
</g>
<defs>
<linearGradient id="paint0_linear_2427_29968" x1="1559.79" y1="32.9309" x2="1591.51" y2="-1092.27" gradientUnits="userSpaceOnUse">
<stop stop-color="#222357"/>
<stop offset="1" stop-color="#254AA5"/>
</linearGradient>
<clipPath id="clip0_2427_29968">
<rect width="33.9277" height="11" fill="white"/>
</clipPath>
</defs>
</svg>
