<svg width="240" height="240" viewBox="0 0 240 240" fill="none" xmlns="http://www.w3.org/2000/svg">
<path d="M120 210.001C108.907 210.001 98.5133 207.914 88.82 203.741C79.1267 199.567 70.6533 193.854 63.4 186.601C56.1467 179.347 50.4333 170.874 46.26 161.181C42.0867 151.487 40 141.094 40 130.001H50C50 149.501 56.7933 166.044 70.38 179.631C83.9667 193.217 100.507 200.007 120 200.001C139.493 199.994 156.037 193.204 169.63 179.631C183.223 166.057 190.013 149.514 190 130.001C189.987 110.487 183.197 93.9473 169.63 80.3806C156.063 66.814 139.52 60.0206 120 60.0006H116.2L132.46 76.2706L125.38 83.4706L96.92 54.8006L125.77 26.1406L132.85 33.3406L116.19 50.0006H120C131.093 50.0006 141.487 52.0873 151.18 56.2606C160.873 60.434 169.347 66.1473 176.6 73.4006C183.853 80.654 189.567 89.1273 193.74 98.8206C197.913 108.514 200 118.907 200 130.001C200 141.094 197.913 151.487 193.74 161.181C189.567 170.874 183.853 179.351 176.6 186.611C169.347 193.871 160.873 199.581 151.18 203.741C141.487 207.901 131.093 209.987 120 210.001Z" fill="white"/>
</svg>
