<svg width="20" height="20" viewBox="0 0 20 20" fill="none" xmlns="http://www.w3.org/2000/svg">
<path d="M7.367 0.25H7.4C7.59891 0.25 7.78968 0.329018 7.93033 0.46967C8.07098 0.610322 8.15 0.801088 8.15 1C8.15 1.19891 8.07098 1.38968 7.93033 1.53033C7.78968 1.67098 7.59891 1.75 7.4 1.75C6.268 1.75 5.463 1.75 4.834 1.802C4.214 1.852 3.829 1.949 3.524 2.104C2.91263 2.41556 2.41556 2.91263 2.104 3.524C1.949 3.829 1.853 4.214 1.802 4.834C1.751 5.464 1.75 6.268 1.75 7.4C1.75 7.59891 1.67098 7.78968 1.53033 7.93033C1.38968 8.07098 1.19891 8.15 1 8.15C0.801088 8.15 0.610322 8.07098 0.46967 7.93033C0.329018 7.78968 0.25 7.59891 0.25 7.4V7.367C0.25 6.275 0.25 5.409 0.307 4.712C0.365 3.998 0.487 3.395 0.767 2.844C1.22267 1.94999 1.94977 1.22324 2.844 0.768C3.394 0.487 3.998 0.365 4.712 0.307C5.409 0.25 6.275 0.25 7.367 0.25ZM15.167 1.802C14.537 1.751 13.732 1.75 12.6 1.75C12.4011 1.75 12.2103 1.67098 12.0697 1.53033C11.929 1.38968 11.85 1.19891 11.85 1C11.85 0.801088 11.929 0.610322 12.0697 0.46967C12.2103 0.329018 12.4011 0.25 12.6 0.25H12.633C13.725 0.25 14.591 0.25 15.288 0.307C16.002 0.365 16.605 0.487 17.157 0.767C18.0506 1.22284 18.777 1.94992 19.232 2.844C19.513 3.394 19.635 3.998 19.693 4.712C19.75 5.409 19.75 6.275 19.75 7.367V7.4C19.75 7.59891 19.671 7.78968 19.5303 7.93033C19.3897 8.07098 19.1989 8.15 19 8.15C18.8011 8.15 18.6103 8.07098 18.4697 7.93033C18.329 7.78968 18.25 7.59891 18.25 7.4C18.25 6.268 18.25 5.463 18.198 4.834C18.148 4.214 18.051 3.829 17.896 3.524C17.5844 2.91263 17.0874 2.41556 16.476 2.104C16.171 1.949 15.787 1.853 15.167 1.802ZM1 11.85C1.19891 11.85 1.38968 11.929 1.53033 12.0697C1.67098 12.2103 1.75 12.4011 1.75 12.6C1.75 13.733 1.75 14.537 1.802 15.166C1.852 15.786 1.949 16.171 2.104 16.476C2.41556 17.0874 2.91263 17.5844 3.524 17.896C3.829 18.051 4.214 18.147 4.834 18.198C5.464 18.249 6.268 18.25 7.4 18.25C7.59891 18.25 7.78968 18.329 7.93033 18.4697C8.07098 18.6103 8.15 18.8011 8.15 19C8.15 19.1989 8.07098 19.3897 7.93033 19.5303C7.78968 19.671 7.59891 19.75 7.4 19.75H7.367C6.275 19.75 5.409 19.75 4.712 19.693C3.998 19.635 3.395 19.513 2.844 19.233C1.95014 18.7776 1.22341 18.0509 0.768 17.157C0.487 16.605 0.365 16.002 0.307 15.288C0.25 14.591 0.25 13.725 0.25 12.633V12.6C0.25 12.4011 0.329018 12.2103 0.46967 12.0697C0.610322 11.929 0.801088 11.85 1 11.85ZM19 11.85C19.1989 11.85 19.3897 11.929 19.5303 12.0697C19.671 12.2103 19.75 12.4011 19.75 12.6V12.633C19.75 13.725 19.75 14.591 19.693 15.288C19.635 16.002 19.513 16.605 19.233 17.157C18.7774 18.0505 18.0507 18.7768 17.157 19.232C16.605 19.513 16.002 19.635 15.288 19.693C14.591 19.75 13.725 19.75 12.633 19.75H12.6C12.4011 19.75 12.2103 19.671 12.0697 19.5303C11.929 19.3897 11.85 19.1989 11.85 19C11.85 18.8011 11.929 18.6103 12.0697 18.4697C12.2103 18.329 12.4011 18.25 12.6 18.25C13.733 18.25 14.537 18.25 15.166 18.198C15.786 18.148 16.171 18.051 16.476 17.896C17.0874 17.5844 17.5844 17.0874 17.896 16.476C18.051 16.171 18.147 15.786 18.198 15.166C18.249 14.536 18.25 13.732 18.25 12.6C18.25 12.4011 18.329 12.2103 18.4697 12.0697C18.6103 11.929 18.8011 11.85 19 11.85Z" fill="#EBE1CF"/>
</svg>
