<svg width="18" height="17" viewBox="0 0 18 17" fill="none" xmlns="http://www.w3.org/2000/svg">
<path d="M1.616 14.2422C1.15533 14.2422 0.771 14.0882 0.463 13.7802C0.155 13.4722 0.000666667 13.0875 0 12.6262V1.85819C0 1.39752 0.154333 1.01319 0.463 0.705187C0.771667 0.397187 1.15567 0.242854 1.615 0.242188H16.385C16.845 0.242188 17.229 0.396521 17.537 0.705187C17.845 1.01385 17.9993 1.39819 18 1.85819V12.6272C18 13.0872 17.8457 13.4715 17.537 13.7802C17.2283 14.0889 16.8443 14.2429 16.385 14.2422H12V15.4342C12 15.6669 11.9233 15.8595 11.77 16.0122C11.6167 16.1649 11.424 16.2415 11.192 16.2422H6.808C6.576 16.2422 6.38333 16.1655 6.23 16.0122C6.07667 15.8589 6 15.6662 6 15.4342V14.2422H1.616Z" fill="white"/>
</svg>
