<svg width="40" height="40" viewBox="0 0 40 40" fill="none" xmlns="http://www.w3.org/2000/svg">
<path fill-rule="evenodd" clip-rule="evenodd" d="M39.1998 19.9998C39.1998 25.092 37.177 29.9756 33.5763 33.5763C29.9756 37.177 25.092 39.1998 19.9998 39.1998C14.9076 39.1998 10.0241 37.177 6.42335 33.5763C2.82266 29.9756 0.799805 25.092 0.799805 19.9998C0.799805 14.9076 2.82266 10.0241 6.42335 6.42335C10.0241 2.82266 14.9076 0.799805 19.9998 0.799805C25.092 0.799805 29.9756 2.82266 33.5763 6.42335C37.177 10.0241 39.1998 14.9076 39.1998 19.9998ZM35.5926 20.4894C35.5023 23.3395 34.6325 26.1104 33.0778 28.5008C31.5231 30.8912 29.343 32.8098 26.7743 34.048C24.2056 35.2862 21.3466 35.7967 18.5082 35.5239C15.6697 35.2511 12.9603 34.2056 10.6744 32.5008C8.38853 30.7961 6.61362 28.4975 5.5426 25.8547C4.47157 23.2119 4.1454 20.3262 4.59953 17.511C5.05366 14.6959 6.27072 12.059 8.11843 9.88711C9.96615 7.71519 12.3738 6.09125 15.0798 5.1918L12.6246 9.4878C12.2546 10.1373 12.103 10.8886 12.1924 11.6307C12.2817 12.3729 12.6072 13.0667 13.1207 13.6099C13.6343 14.153 14.3089 14.5168 15.0449 14.6475C15.7809 14.7782 16.5394 14.6689 17.2086 14.3358L17.6286 14.127C17.7955 14.0434 17.9796 13.9998 18.1662 13.9998H18.5166C18.7212 13.9998 18.9225 14.0521 19.1012 14.1518C19.2799 14.2515 19.4301 14.3953 19.5376 14.5694C19.6451 14.7435 19.7063 14.9422 19.7154 15.1467C19.7244 15.3511 19.6811 15.5545 19.5894 15.7374L19.5222 15.8694C19.4426 16.0285 19.3203 16.1624 19.169 16.2561C19.0177 16.3497 18.8433 16.3995 18.6654 16.3998H17.4606C16.5679 16.3999 15.6891 16.6203 14.902 17.0414C14.1149 17.4626 13.4439 18.0715 12.9486 18.8142L12.843 18.9726C12.4137 19.6176 12.1389 20.3529 12.04 21.1214C11.9411 21.8899 12.0207 22.6708 12.2726 23.4035C12.5245 24.1363 12.9419 24.801 13.4925 25.3462C14.043 25.8914 14.7118 26.3023 15.447 26.547C15.7231 26.6388 15.9635 26.8148 16.1344 27.0503C16.3053 27.2858 16.3981 27.5689 16.3998 27.8598V30.3798C16.3995 30.9644 16.5809 31.5347 16.919 32.0117C17.257 32.4887 17.7349 32.8488 18.2866 33.0423C18.8383 33.2358 19.4364 33.253 19.9983 33.0916C20.5602 32.9302 21.0581 32.5982 21.423 32.1414L25.2894 27.3078C25.7502 26.7318 25.9998 26.0214 25.9998 25.287C25.9998 24.5286 26.307 23.7894 26.847 23.247C27.3817 22.7144 27.7152 22.0129 27.7909 21.262C27.8666 20.5112 27.6798 19.7572 27.2622 19.1286L26.1486 17.4582C26.0359 17.2846 25.9876 17.0769 26.012 16.8714C26.0365 16.6658 26.1322 16.4753 26.2825 16.333C26.4329 16.1906 26.6283 16.1055 26.8349 16.0922C27.0415 16.079 27.2462 16.1386 27.4134 16.2606L28.2366 16.8774C28.608 17.1563 29.0498 17.3261 29.5123 17.3677C29.9749 17.4092 30.4399 17.3209 30.855 17.1126C31.1196 16.9818 31.4184 16.9369 31.7097 16.9843C32.001 17.0316 32.2703 17.1688 32.4798 17.3766L35.5926 20.4894Z" fill="white"/>
</svg>
