<svg width="24" height="25" viewBox="0 0 24 25" fill="none" xmlns="http://www.w3.org/2000/svg">
<path fill-rule="evenodd" clip-rule="evenodd" d="M11 4.5C7.13401 4.5 4 7.63401 4 11.5C4 15.366 7.13401 18.5 11 18.5C14.866 18.5 18 15.366 18 11.5C18 7.63401 14.866 4.5 11 4.5ZM2 11.5C2 6.52944 6.02944 2.5 11 2.5C15.9706 2.5 20 6.52944 20 11.5C20 16.4706 15.9706 20.5 11 20.5C6.02944 20.5 2 16.4706 2 11.5Z" fill="#4D4D4D"/>
<path fill-rule="evenodd" clip-rule="evenodd" d="M15.9428 16.4413C16.3333 16.0508 16.9665 16.0508 17.357 16.4413L21.707 20.7913C22.0975 21.1819 22.0975 21.815 21.707 22.2055C21.3165 22.5961 20.6833 22.5961 20.2928 22.2055L15.9428 17.8555C15.5523 17.465 15.5523 16.8319 15.9428 16.4413Z" fill="#4D4D4D"/>
</svg>
