<svg width="18" height="13" viewBox="0 0 18 13" fill="none" xmlns="http://www.w3.org/2000/svg">
<path fill-rule="evenodd" clip-rule="evenodd" d="M16.0388 0.385481C16.8098 0.593122 17.4177 1.20094 17.6252 1.97204C18.0109 3.38048 17.996 6.31629 17.996 6.31629C17.996 6.31629 17.996 9.23713 17.6254 10.6457C17.4177 11.4167 16.8099 12.0246 16.0388 12.2321C14.6302 12.6029 8.99606 12.6029 8.99606 12.6029C8.99606 12.6029 3.37657 12.6029 1.9533 12.2174C1.1822 12.0098 0.574384 11.4018 0.366743 10.6309C-0.00390625 9.23713 -0.00390625 6.30146 -0.00390625 6.30146C-0.00390625 6.30146 -0.00390625 3.38048 0.366743 1.97204C0.574247 1.20108 1.19703 0.57829 1.95316 0.370787C3.36174 0 8.99592 0 8.99592 0C8.99592 0 14.6302 0 16.0388 0.385481ZM11.8874 6.30008L7.20215 8.9986V3.60156L11.8874 6.30008Z" fill="white"/>
</svg>
